G75*
G70*
%OFA0B0*%
%FSLAX24Y24*%
%IPPOS*%
%LPD*%
%AMOC8*
5,1,8,0,0,1.08239X$1,22.5*
%
%ADD10C,0.0000*%
%ADD11C,0.0886*%
%ADD12C,0.1286*%
%ADD13C,0.1181*%
%ADD14C,0.0660*%
%ADD15C,0.0591*%
%ADD16OC8,0.1000*%
%ADD17C,0.0416*%
%ADD18C,0.0160*%
D10*
X003465Y001682D02*
X003465Y002682D01*
X004965Y004182D01*
X005965Y004182D01*
X005965Y025182D01*
X004965Y025182D01*
X003465Y026682D01*
X003465Y027682D01*
X004965Y029182D01*
X029965Y029182D01*
X029965Y000182D01*
X004965Y000182D01*
X003465Y001682D01*
X004493Y002182D02*
X004495Y002225D01*
X004501Y002267D01*
X004511Y002309D01*
X004524Y002350D01*
X004541Y002390D01*
X004562Y002427D01*
X004586Y002463D01*
X004613Y002496D01*
X004643Y002527D01*
X004676Y002555D01*
X004711Y002580D01*
X004748Y002601D01*
X004787Y002619D01*
X004827Y002633D01*
X004869Y002644D01*
X004911Y002651D01*
X004954Y002654D01*
X004997Y002653D01*
X005040Y002648D01*
X005082Y002639D01*
X005123Y002627D01*
X005163Y002611D01*
X005201Y002591D01*
X005237Y002568D01*
X005271Y002541D01*
X005303Y002512D01*
X005331Y002480D01*
X005357Y002445D01*
X005379Y002409D01*
X005398Y002370D01*
X005413Y002330D01*
X005425Y002289D01*
X005433Y002246D01*
X005437Y002203D01*
X005437Y002161D01*
X005433Y002118D01*
X005425Y002075D01*
X005413Y002034D01*
X005398Y001994D01*
X005379Y001955D01*
X005357Y001919D01*
X005331Y001884D01*
X005303Y001852D01*
X005271Y001823D01*
X005237Y001796D01*
X005201Y001773D01*
X005163Y001753D01*
X005123Y001737D01*
X005082Y001725D01*
X005040Y001716D01*
X004997Y001711D01*
X004954Y001710D01*
X004911Y001713D01*
X004869Y001720D01*
X004827Y001731D01*
X004787Y001745D01*
X004748Y001763D01*
X004711Y001784D01*
X004676Y001809D01*
X004643Y001837D01*
X004613Y001868D01*
X004586Y001901D01*
X004562Y001937D01*
X004541Y001974D01*
X004524Y002014D01*
X004511Y002055D01*
X004501Y002097D01*
X004495Y002139D01*
X004493Y002182D01*
X015571Y009182D02*
X015573Y009221D01*
X015579Y009260D01*
X015589Y009298D01*
X015602Y009335D01*
X015619Y009370D01*
X015639Y009404D01*
X015663Y009435D01*
X015690Y009464D01*
X015719Y009490D01*
X015751Y009513D01*
X015785Y009533D01*
X015821Y009549D01*
X015858Y009561D01*
X015897Y009570D01*
X015936Y009575D01*
X015975Y009576D01*
X016014Y009573D01*
X016053Y009566D01*
X016090Y009555D01*
X016127Y009541D01*
X016162Y009523D01*
X016195Y009502D01*
X016226Y009477D01*
X016254Y009450D01*
X016279Y009420D01*
X016301Y009387D01*
X016320Y009353D01*
X016335Y009317D01*
X016347Y009279D01*
X016355Y009241D01*
X016359Y009202D01*
X016359Y009162D01*
X016355Y009123D01*
X016347Y009085D01*
X016335Y009047D01*
X016320Y009011D01*
X016301Y008977D01*
X016279Y008944D01*
X016254Y008914D01*
X016226Y008887D01*
X016195Y008862D01*
X016162Y008841D01*
X016127Y008823D01*
X016090Y008809D01*
X016053Y008798D01*
X016014Y008791D01*
X015975Y008788D01*
X015936Y008789D01*
X015897Y008794D01*
X015858Y008803D01*
X015821Y008815D01*
X015785Y008831D01*
X015751Y008851D01*
X015719Y008874D01*
X015690Y008900D01*
X015663Y008929D01*
X015639Y008960D01*
X015619Y008994D01*
X015602Y009029D01*
X015589Y009066D01*
X015579Y009104D01*
X015573Y009143D01*
X015571Y009182D01*
X007990Y019245D02*
X007992Y019288D01*
X007998Y019331D01*
X008008Y019373D01*
X008021Y019414D01*
X008038Y019454D01*
X008059Y019492D01*
X008083Y019528D01*
X008111Y019561D01*
X008141Y019592D01*
X008174Y019620D01*
X008209Y019645D01*
X008246Y019667D01*
X008286Y019685D01*
X008326Y019699D01*
X008368Y019710D01*
X008411Y019717D01*
X008454Y019720D01*
X008497Y019719D01*
X008540Y019714D01*
X008583Y019705D01*
X008624Y019693D01*
X008664Y019676D01*
X008702Y019656D01*
X008739Y019633D01*
X008773Y019607D01*
X008805Y019577D01*
X008833Y019545D01*
X008859Y019510D01*
X008882Y019473D01*
X008901Y019434D01*
X008916Y019394D01*
X008928Y019352D01*
X008936Y019310D01*
X008940Y019267D01*
X008940Y019223D01*
X008936Y019180D01*
X008928Y019138D01*
X008916Y019096D01*
X008901Y019056D01*
X008882Y019017D01*
X008859Y018980D01*
X008833Y018945D01*
X008805Y018913D01*
X008773Y018883D01*
X008739Y018857D01*
X008703Y018834D01*
X008664Y018814D01*
X008624Y018797D01*
X008583Y018785D01*
X008540Y018776D01*
X008497Y018771D01*
X008454Y018770D01*
X008411Y018773D01*
X008368Y018780D01*
X008326Y018791D01*
X008286Y018805D01*
X008246Y018823D01*
X008209Y018845D01*
X008174Y018870D01*
X008141Y018898D01*
X008111Y018929D01*
X008083Y018962D01*
X008059Y018998D01*
X008038Y019036D01*
X008021Y019076D01*
X008008Y019117D01*
X007998Y019159D01*
X007992Y019202D01*
X007990Y019245D01*
X007990Y022119D02*
X007992Y022162D01*
X007998Y022205D01*
X008008Y022247D01*
X008021Y022288D01*
X008038Y022328D01*
X008059Y022366D01*
X008083Y022402D01*
X008111Y022435D01*
X008141Y022466D01*
X008174Y022494D01*
X008209Y022519D01*
X008246Y022541D01*
X008286Y022559D01*
X008326Y022573D01*
X008368Y022584D01*
X008411Y022591D01*
X008454Y022594D01*
X008497Y022593D01*
X008540Y022588D01*
X008583Y022579D01*
X008624Y022567D01*
X008664Y022550D01*
X008702Y022530D01*
X008739Y022507D01*
X008773Y022481D01*
X008805Y022451D01*
X008833Y022419D01*
X008859Y022384D01*
X008882Y022347D01*
X008901Y022308D01*
X008916Y022268D01*
X008928Y022226D01*
X008936Y022184D01*
X008940Y022141D01*
X008940Y022097D01*
X008936Y022054D01*
X008928Y022012D01*
X008916Y021970D01*
X008901Y021930D01*
X008882Y021891D01*
X008859Y021854D01*
X008833Y021819D01*
X008805Y021787D01*
X008773Y021757D01*
X008739Y021731D01*
X008703Y021708D01*
X008664Y021688D01*
X008624Y021671D01*
X008583Y021659D01*
X008540Y021650D01*
X008497Y021645D01*
X008454Y021644D01*
X008411Y021647D01*
X008368Y021654D01*
X008326Y021665D01*
X008286Y021679D01*
X008246Y021697D01*
X008209Y021719D01*
X008174Y021744D01*
X008141Y021772D01*
X008111Y021803D01*
X008083Y021836D01*
X008059Y021872D01*
X008038Y021910D01*
X008021Y021950D01*
X008008Y021991D01*
X007998Y022033D01*
X007992Y022076D01*
X007990Y022119D01*
X004493Y027182D02*
X004495Y027225D01*
X004501Y027267D01*
X004511Y027309D01*
X004524Y027350D01*
X004541Y027390D01*
X004562Y027427D01*
X004586Y027463D01*
X004613Y027496D01*
X004643Y027527D01*
X004676Y027555D01*
X004711Y027580D01*
X004748Y027601D01*
X004787Y027619D01*
X004827Y027633D01*
X004869Y027644D01*
X004911Y027651D01*
X004954Y027654D01*
X004997Y027653D01*
X005040Y027648D01*
X005082Y027639D01*
X005123Y027627D01*
X005163Y027611D01*
X005201Y027591D01*
X005237Y027568D01*
X005271Y027541D01*
X005303Y027512D01*
X005331Y027480D01*
X005357Y027445D01*
X005379Y027409D01*
X005398Y027370D01*
X005413Y027330D01*
X005425Y027289D01*
X005433Y027246D01*
X005437Y027203D01*
X005437Y027161D01*
X005433Y027118D01*
X005425Y027075D01*
X005413Y027034D01*
X005398Y026994D01*
X005379Y026955D01*
X005357Y026919D01*
X005331Y026884D01*
X005303Y026852D01*
X005271Y026823D01*
X005237Y026796D01*
X005201Y026773D01*
X005163Y026753D01*
X005123Y026737D01*
X005082Y026725D01*
X005040Y026716D01*
X004997Y026711D01*
X004954Y026710D01*
X004911Y026713D01*
X004869Y026720D01*
X004827Y026731D01*
X004787Y026745D01*
X004748Y026763D01*
X004711Y026784D01*
X004676Y026809D01*
X004643Y026837D01*
X004613Y026868D01*
X004586Y026901D01*
X004562Y026937D01*
X004541Y026974D01*
X004524Y027014D01*
X004511Y027055D01*
X004501Y027097D01*
X004495Y027139D01*
X004493Y027182D01*
X015571Y023182D02*
X015573Y023221D01*
X015579Y023260D01*
X015589Y023298D01*
X015602Y023335D01*
X015619Y023370D01*
X015639Y023404D01*
X015663Y023435D01*
X015690Y023464D01*
X015719Y023490D01*
X015751Y023513D01*
X015785Y023533D01*
X015821Y023549D01*
X015858Y023561D01*
X015897Y023570D01*
X015936Y023575D01*
X015975Y023576D01*
X016014Y023573D01*
X016053Y023566D01*
X016090Y023555D01*
X016127Y023541D01*
X016162Y023523D01*
X016195Y023502D01*
X016226Y023477D01*
X016254Y023450D01*
X016279Y023420D01*
X016301Y023387D01*
X016320Y023353D01*
X016335Y023317D01*
X016347Y023279D01*
X016355Y023241D01*
X016359Y023202D01*
X016359Y023162D01*
X016355Y023123D01*
X016347Y023085D01*
X016335Y023047D01*
X016320Y023011D01*
X016301Y022977D01*
X016279Y022944D01*
X016254Y022914D01*
X016226Y022887D01*
X016195Y022862D01*
X016162Y022841D01*
X016127Y022823D01*
X016090Y022809D01*
X016053Y022798D01*
X016014Y022791D01*
X015975Y022788D01*
X015936Y022789D01*
X015897Y022794D01*
X015858Y022803D01*
X015821Y022815D01*
X015785Y022831D01*
X015751Y022851D01*
X015719Y022874D01*
X015690Y022900D01*
X015663Y022929D01*
X015639Y022960D01*
X015619Y022994D01*
X015602Y023029D01*
X015589Y023066D01*
X015579Y023104D01*
X015573Y023143D01*
X015571Y023182D01*
X027493Y027182D02*
X027495Y027225D01*
X027501Y027267D01*
X027511Y027309D01*
X027524Y027350D01*
X027541Y027390D01*
X027562Y027427D01*
X027586Y027463D01*
X027613Y027496D01*
X027643Y027527D01*
X027676Y027555D01*
X027711Y027580D01*
X027748Y027601D01*
X027787Y027619D01*
X027827Y027633D01*
X027869Y027644D01*
X027911Y027651D01*
X027954Y027654D01*
X027997Y027653D01*
X028040Y027648D01*
X028082Y027639D01*
X028123Y027627D01*
X028163Y027611D01*
X028201Y027591D01*
X028237Y027568D01*
X028271Y027541D01*
X028303Y027512D01*
X028331Y027480D01*
X028357Y027445D01*
X028379Y027409D01*
X028398Y027370D01*
X028413Y027330D01*
X028425Y027289D01*
X028433Y027246D01*
X028437Y027203D01*
X028437Y027161D01*
X028433Y027118D01*
X028425Y027075D01*
X028413Y027034D01*
X028398Y026994D01*
X028379Y026955D01*
X028357Y026919D01*
X028331Y026884D01*
X028303Y026852D01*
X028271Y026823D01*
X028237Y026796D01*
X028201Y026773D01*
X028163Y026753D01*
X028123Y026737D01*
X028082Y026725D01*
X028040Y026716D01*
X027997Y026711D01*
X027954Y026710D01*
X027911Y026713D01*
X027869Y026720D01*
X027827Y026731D01*
X027787Y026745D01*
X027748Y026763D01*
X027711Y026784D01*
X027676Y026809D01*
X027643Y026837D01*
X027613Y026868D01*
X027586Y026901D01*
X027562Y026937D01*
X027541Y026974D01*
X027524Y027014D01*
X027511Y027055D01*
X027501Y027097D01*
X027495Y027139D01*
X027493Y027182D01*
X027493Y002182D02*
X027495Y002225D01*
X027501Y002267D01*
X027511Y002309D01*
X027524Y002350D01*
X027541Y002390D01*
X027562Y002427D01*
X027586Y002463D01*
X027613Y002496D01*
X027643Y002527D01*
X027676Y002555D01*
X027711Y002580D01*
X027748Y002601D01*
X027787Y002619D01*
X027827Y002633D01*
X027869Y002644D01*
X027911Y002651D01*
X027954Y002654D01*
X027997Y002653D01*
X028040Y002648D01*
X028082Y002639D01*
X028123Y002627D01*
X028163Y002611D01*
X028201Y002591D01*
X028237Y002568D01*
X028271Y002541D01*
X028303Y002512D01*
X028331Y002480D01*
X028357Y002445D01*
X028379Y002409D01*
X028398Y002370D01*
X028413Y002330D01*
X028425Y002289D01*
X028433Y002246D01*
X028437Y002203D01*
X028437Y002161D01*
X028433Y002118D01*
X028425Y002075D01*
X028413Y002034D01*
X028398Y001994D01*
X028379Y001955D01*
X028357Y001919D01*
X028331Y001884D01*
X028303Y001852D01*
X028271Y001823D01*
X028237Y001796D01*
X028201Y001773D01*
X028163Y001753D01*
X028123Y001737D01*
X028082Y001725D01*
X028040Y001716D01*
X027997Y001711D01*
X027954Y001710D01*
X027911Y001713D01*
X027869Y001720D01*
X027827Y001731D01*
X027787Y001745D01*
X027748Y001763D01*
X027711Y001784D01*
X027676Y001809D01*
X027643Y001837D01*
X027613Y001868D01*
X027586Y001901D01*
X027562Y001937D01*
X027541Y001974D01*
X027524Y002014D01*
X027511Y002055D01*
X027501Y002097D01*
X027495Y002139D01*
X027493Y002182D01*
D11*
X015965Y007198D03*
X015965Y011166D03*
X015965Y021198D03*
X015965Y025166D03*
D12*
X017232Y027503D03*
X017232Y018861D03*
X017232Y013503D03*
X017232Y004861D03*
D13*
X019469Y007198D03*
X019469Y011166D03*
X019469Y021198D03*
X019469Y025166D03*
D14*
X019965Y016682D03*
X015965Y016682D03*
X011465Y010682D03*
X007465Y010682D03*
X007465Y002182D03*
X011465Y002182D03*
X015965Y002682D03*
X019965Y002682D03*
D15*
X024299Y005091D03*
X028039Y005091D03*
X028039Y009091D03*
X024299Y009091D03*
D16*
X028465Y013682D03*
X028465Y016182D03*
X028465Y021182D03*
X028465Y023682D03*
D17*
X013965Y016682D03*
X012465Y015182D03*
X010465Y013682D03*
X008965Y015682D03*
X012465Y019182D03*
X012965Y025182D03*
X008965Y025182D03*
X011465Y005682D03*
D18*
X014465Y002682D01*
X015965Y002682D01*
X016380Y003072D02*
X019634Y003072D01*
X019632Y003071D02*
X019576Y003014D01*
X019528Y002949D01*
X019492Y002878D01*
X019467Y002801D01*
X019455Y002722D01*
X019455Y002712D01*
X019934Y002712D01*
X019934Y002652D01*
X019455Y002652D01*
X019455Y002642D01*
X019467Y002562D01*
X019492Y002486D01*
X019528Y002415D01*
X019576Y002350D01*
X019632Y002293D01*
X019697Y002246D01*
X019769Y002209D01*
X019845Y002184D01*
X019924Y002172D01*
X019934Y002172D01*
X019934Y002652D01*
X019995Y002652D01*
X019995Y002712D01*
X020475Y002712D01*
X020475Y002722D01*
X020462Y002801D01*
X020437Y002878D01*
X020401Y002949D01*
X020354Y003014D01*
X020297Y003071D01*
X020232Y003118D01*
X020160Y003154D01*
X020084Y003179D01*
X020005Y003192D01*
X019995Y003192D01*
X019995Y002712D01*
X019934Y002712D01*
X019934Y003192D01*
X019924Y003192D01*
X019845Y003179D01*
X019769Y003154D01*
X019697Y003118D01*
X019632Y003071D01*
X019510Y002914D02*
X016485Y002914D01*
X016448Y003005D02*
X016535Y002795D01*
X016535Y002568D01*
X016448Y002359D01*
X016287Y002199D01*
X016078Y002112D01*
X015851Y002112D01*
X015642Y002199D01*
X015481Y002359D01*
X015480Y002362D01*
X014401Y002362D01*
X014283Y002411D01*
X014193Y002501D01*
X011460Y005234D01*
X011375Y005234D01*
X011211Y005302D01*
X011085Y005428D01*
X011017Y005593D01*
X011017Y005771D01*
X011085Y005936D01*
X011211Y006061D01*
X011375Y006130D01*
X011554Y006130D01*
X011718Y006061D01*
X011844Y005936D01*
X011912Y005771D01*
X011912Y005687D01*
X014597Y003002D01*
X015480Y003002D01*
X015481Y003005D01*
X015642Y003165D01*
X015851Y003252D01*
X016078Y003252D01*
X016287Y003165D01*
X016448Y003005D01*
X016535Y002755D02*
X019460Y002755D01*
X019462Y002597D02*
X016535Y002597D01*
X016481Y002438D02*
X019516Y002438D01*
X019651Y002280D02*
X016368Y002280D01*
X016100Y002121D02*
X027252Y002121D01*
X027252Y002040D02*
X027252Y002324D01*
X027361Y002585D01*
X027561Y002786D01*
X027823Y002894D01*
X028106Y002894D01*
X028368Y002786D01*
X028569Y002585D01*
X028677Y002324D01*
X028677Y002040D01*
X028569Y001778D01*
X028368Y001578D01*
X028106Y001469D01*
X027823Y001469D01*
X027561Y001578D01*
X027361Y001778D01*
X027252Y002040D01*
X027284Y001963D02*
X011991Y001963D01*
X011948Y001859D02*
X012035Y002068D01*
X012035Y002295D01*
X011948Y002505D01*
X011787Y002665D01*
X011578Y002752D01*
X011351Y002752D01*
X011142Y002665D01*
X010981Y002505D01*
X010895Y002295D01*
X010895Y002068D01*
X010981Y001859D01*
X011142Y001699D01*
X011351Y001612D01*
X011578Y001612D01*
X011787Y001699D01*
X011948Y001859D01*
X011893Y001804D02*
X027350Y001804D01*
X027493Y001645D02*
X011659Y001645D01*
X011270Y001645D02*
X005965Y001645D01*
X005965Y001487D02*
X027781Y001487D01*
X028148Y001487D02*
X029725Y001487D01*
X029725Y001645D02*
X028436Y001645D01*
X028579Y001804D02*
X029725Y001804D01*
X029725Y001963D02*
X028645Y001963D01*
X028677Y002121D02*
X029725Y002121D01*
X029725Y002280D02*
X028677Y002280D01*
X028630Y002438D02*
X029725Y002438D01*
X029725Y002597D02*
X028557Y002597D01*
X028399Y002755D02*
X029725Y002755D01*
X029725Y002914D02*
X020419Y002914D01*
X020469Y002755D02*
X027530Y002755D01*
X027372Y002597D02*
X020467Y002597D01*
X020462Y002562D02*
X020475Y002642D01*
X020475Y002652D01*
X019995Y002652D01*
X019995Y002172D01*
X020005Y002172D01*
X020084Y002184D01*
X020160Y002209D01*
X020232Y002246D01*
X020297Y002293D01*
X020354Y002350D01*
X020401Y002415D01*
X020437Y002486D01*
X020462Y002562D01*
X020413Y002438D02*
X027300Y002438D01*
X027252Y002280D02*
X020279Y002280D01*
X019995Y002280D02*
X019934Y002280D01*
X019934Y002438D02*
X019995Y002438D01*
X019995Y002597D02*
X019934Y002597D01*
X019934Y002755D02*
X019995Y002755D01*
X019995Y002914D02*
X019934Y002914D01*
X019934Y003072D02*
X019995Y003072D01*
X020295Y003072D02*
X029725Y003072D01*
X029725Y003231D02*
X016129Y003231D01*
X015801Y003231D02*
X014368Y003231D01*
X014210Y003389D02*
X029725Y003389D01*
X029725Y003548D02*
X014051Y003548D01*
X013892Y003707D02*
X029725Y003707D01*
X029725Y003865D02*
X013734Y003865D01*
X013575Y004024D02*
X016947Y004024D01*
X017057Y003978D02*
X017408Y003978D01*
X017732Y004113D01*
X017981Y004361D01*
X018115Y004685D01*
X018115Y005037D01*
X017981Y005361D01*
X017732Y005609D01*
X017408Y005744D01*
X017057Y005744D01*
X016732Y005609D01*
X011990Y005609D01*
X011912Y005768D02*
X029725Y005768D01*
X029725Y005926D02*
X011848Y005926D01*
X011662Y006085D02*
X029725Y006085D01*
X029725Y006243D02*
X006205Y006243D01*
X006205Y006085D02*
X011267Y006085D01*
X011081Y005926D02*
X006205Y005926D01*
X006205Y005768D02*
X011017Y005768D01*
X011017Y005609D02*
X006205Y005609D01*
X006205Y005451D02*
X011076Y005451D01*
X011236Y005292D02*
X006205Y005292D01*
X006205Y005133D02*
X011560Y005133D01*
X011719Y004975D02*
X006205Y004975D01*
X006205Y004816D02*
X011878Y004816D01*
X012036Y004658D02*
X006205Y004658D01*
X006205Y004499D02*
X012195Y004499D01*
X012353Y004341D02*
X006205Y004341D01*
X006205Y004182D02*
X012512Y004182D01*
X012670Y004024D02*
X006146Y004024D01*
X006168Y004046D02*
X006205Y004134D01*
X006205Y025134D01*
X006205Y025230D01*
X006168Y025318D01*
X006101Y025385D01*
X006012Y025422D01*
X005965Y025422D01*
X005965Y028942D01*
X029725Y028942D01*
X029725Y000422D01*
X005965Y000422D01*
X005965Y003942D01*
X006012Y003942D01*
X006101Y003978D01*
X006168Y004046D01*
X005965Y003865D02*
X012829Y003865D01*
X012987Y003707D02*
X005965Y003707D01*
X005965Y003548D02*
X013146Y003548D01*
X013304Y003389D02*
X005965Y003389D01*
X005965Y003231D02*
X013463Y003231D01*
X013621Y003072D02*
X005965Y003072D01*
X005965Y002914D02*
X013780Y002914D01*
X013939Y002755D02*
X005965Y002755D01*
X005965Y002597D02*
X007168Y002597D01*
X007197Y002618D02*
X007132Y002571D01*
X007076Y002514D01*
X007028Y002449D01*
X006992Y002378D01*
X006967Y002301D01*
X006955Y002222D01*
X006955Y002212D01*
X007434Y002212D01*
X007434Y002152D01*
X006955Y002152D01*
X006955Y002142D01*
X006967Y002062D01*
X006992Y001986D01*
X007028Y001915D01*
X007076Y001850D01*
X007132Y001793D01*
X007197Y001746D01*
X007269Y001709D01*
X007345Y001684D01*
X007424Y001672D01*
X007434Y001672D01*
X007434Y002152D01*
X007495Y002152D01*
X007495Y002212D01*
X007975Y002212D01*
X007975Y002222D01*
X007962Y002301D01*
X007937Y002378D01*
X007901Y002449D01*
X007854Y002514D01*
X007797Y002571D01*
X007732Y002618D01*
X007660Y002654D01*
X007584Y002679D01*
X007505Y002692D01*
X007495Y002692D01*
X007495Y002212D01*
X007434Y002212D01*
X007434Y002692D01*
X007424Y002692D01*
X007345Y002679D01*
X007269Y002654D01*
X007197Y002618D01*
X007434Y002597D02*
X007495Y002597D01*
X007495Y002438D02*
X007434Y002438D01*
X007434Y002280D02*
X007495Y002280D01*
X007495Y002152D02*
X007975Y002152D01*
X007975Y002142D01*
X007962Y002062D01*
X007937Y001986D01*
X007901Y001915D01*
X007854Y001850D01*
X007797Y001793D01*
X007732Y001746D01*
X007660Y001709D01*
X007584Y001684D01*
X007505Y001672D01*
X007495Y001672D01*
X007495Y002152D01*
X007495Y002121D02*
X007434Y002121D01*
X007434Y001963D02*
X007495Y001963D01*
X007495Y001804D02*
X007434Y001804D01*
X007121Y001804D02*
X005965Y001804D01*
X005965Y001963D02*
X007004Y001963D01*
X006958Y002121D02*
X005965Y002121D01*
X005965Y002280D02*
X006964Y002280D01*
X007023Y002438D02*
X005965Y002438D01*
X005965Y001328D02*
X029725Y001328D01*
X029725Y001170D02*
X005965Y001170D01*
X005965Y001011D02*
X029725Y001011D01*
X029725Y000853D02*
X005965Y000853D01*
X005965Y000694D02*
X029725Y000694D01*
X029725Y000536D02*
X005965Y000536D01*
X007808Y001804D02*
X011036Y001804D01*
X010938Y001963D02*
X007925Y001963D01*
X007971Y002121D02*
X010895Y002121D01*
X010895Y002280D02*
X007965Y002280D01*
X007906Y002438D02*
X010954Y002438D01*
X011073Y002597D02*
X007761Y002597D01*
X011856Y002597D02*
X014097Y002597D01*
X014256Y002438D02*
X011975Y002438D01*
X012035Y002280D02*
X015561Y002280D01*
X015829Y002121D02*
X012035Y002121D01*
X013417Y004182D02*
X016662Y004182D01*
X016732Y004113D02*
X017057Y003978D01*
X016732Y004113D02*
X016484Y004361D01*
X016349Y004685D01*
X016349Y005037D01*
X016484Y005361D01*
X016732Y005609D01*
X016573Y005451D02*
X012148Y005451D01*
X012307Y005292D02*
X016455Y005292D01*
X016389Y005133D02*
X012466Y005133D01*
X012624Y004975D02*
X016349Y004975D01*
X016349Y004816D02*
X012783Y004816D01*
X012941Y004658D02*
X016361Y004658D01*
X016426Y004499D02*
X013100Y004499D01*
X013258Y004341D02*
X016504Y004341D01*
X017518Y004024D02*
X029725Y004024D01*
X029725Y004182D02*
X017802Y004182D01*
X017961Y004341D02*
X029725Y004341D01*
X029725Y004499D02*
X018038Y004499D01*
X018104Y004658D02*
X023976Y004658D01*
X023996Y004638D02*
X024193Y004556D01*
X024406Y004556D01*
X024602Y004638D01*
X024753Y004788D01*
X024834Y004985D01*
X024834Y005198D01*
X024753Y005395D01*
X024602Y005545D01*
X024406Y005627D01*
X024193Y005627D01*
X023996Y005545D01*
X023845Y005395D01*
X023764Y005198D01*
X023764Y004985D01*
X023845Y004788D01*
X023996Y004638D01*
X023834Y004816D02*
X018115Y004816D01*
X018115Y004975D02*
X023768Y004975D01*
X023764Y005133D02*
X018075Y005133D01*
X018009Y005292D02*
X023803Y005292D01*
X023901Y005451D02*
X017891Y005451D01*
X017733Y005609D02*
X024150Y005609D01*
X024448Y005609D02*
X027891Y005609D01*
X027933Y005627D02*
X027736Y005545D01*
X027586Y005395D01*
X027504Y005198D01*
X027504Y004985D01*
X027586Y004788D01*
X027736Y004638D01*
X027933Y004556D01*
X028146Y004556D01*
X028343Y004638D01*
X028493Y004788D01*
X028575Y004985D01*
X028575Y005198D01*
X028493Y005395D01*
X028343Y005545D01*
X028146Y005627D01*
X027933Y005627D01*
X028188Y005609D02*
X029725Y005609D01*
X029725Y005451D02*
X028437Y005451D01*
X028536Y005292D02*
X029725Y005292D01*
X029725Y005133D02*
X028575Y005133D01*
X028570Y004975D02*
X029725Y004975D01*
X029725Y004816D02*
X028505Y004816D01*
X028363Y004658D02*
X029725Y004658D01*
X029725Y006402D02*
X019717Y006402D01*
X019634Y006367D02*
X019939Y006494D01*
X020173Y006727D01*
X020299Y007032D01*
X020299Y007363D01*
X020173Y007668D01*
X019939Y007902D01*
X019634Y008028D01*
X019303Y008028D01*
X018998Y007902D01*
X018764Y007668D01*
X018638Y007363D01*
X018638Y007032D01*
X018764Y006727D01*
X018998Y006494D01*
X019303Y006367D01*
X019634Y006367D01*
X020006Y006560D02*
X029725Y006560D01*
X029725Y006719D02*
X020164Y006719D01*
X020235Y006877D02*
X029725Y006877D01*
X029725Y007036D02*
X020299Y007036D01*
X020299Y007194D02*
X029725Y007194D01*
X029725Y007353D02*
X020299Y007353D01*
X020237Y007512D02*
X029725Y007512D01*
X029725Y007670D02*
X020171Y007670D01*
X020012Y007829D02*
X029725Y007829D01*
X029725Y007987D02*
X019733Y007987D01*
X019204Y007987D02*
X006205Y007987D01*
X006205Y007829D02*
X018925Y007829D01*
X018766Y007670D02*
X016373Y007670D01*
X016370Y007673D02*
X016291Y007730D01*
X016204Y007775D01*
X016110Y007805D01*
X016032Y007818D01*
X016032Y007266D01*
X015897Y007266D01*
X015897Y007818D01*
X015819Y007805D01*
X015725Y007775D01*
X015638Y007730D01*
X015559Y007673D01*
X015489Y007603D01*
X015432Y007524D01*
X015387Y007437D01*
X015357Y007344D01*
X015345Y007265D01*
X015897Y007265D01*
X015897Y007130D01*
X016032Y007130D01*
X016032Y006578D01*
X016110Y006590D01*
X016204Y006620D01*
X016291Y006665D01*
X016370Y006722D01*
X016440Y006792D01*
X016497Y006871D01*
X016542Y006959D01*
X016572Y007052D01*
X016584Y007130D01*
X016032Y007130D01*
X016032Y007265D01*
X016584Y007265D01*
X016572Y007344D01*
X016542Y007437D01*
X016497Y007524D01*
X016440Y007603D01*
X016370Y007673D01*
X016504Y007512D02*
X018700Y007512D01*
X018638Y007353D02*
X016569Y007353D01*
X016567Y007036D02*
X018638Y007036D01*
X018638Y007194D02*
X016032Y007194D01*
X015897Y007194D02*
X006205Y007194D01*
X006205Y007036D02*
X015362Y007036D01*
X015357Y007052D02*
X015387Y006959D01*
X015432Y006871D01*
X015489Y006792D01*
X015559Y006722D01*
X015638Y006665D01*
X015725Y006620D01*
X015819Y006590D01*
X015897Y006578D01*
X015897Y007130D01*
X015345Y007130D01*
X015357Y007052D01*
X015429Y006877D02*
X006205Y006877D01*
X006205Y006719D02*
X015564Y006719D01*
X015897Y006719D02*
X016032Y006719D01*
X016032Y006877D02*
X015897Y006877D01*
X015897Y007036D02*
X016032Y007036D01*
X016032Y007353D02*
X015897Y007353D01*
X015897Y007512D02*
X016032Y007512D01*
X016032Y007670D02*
X015897Y007670D01*
X015556Y007670D02*
X006205Y007670D01*
X006205Y007512D02*
X015425Y007512D01*
X015360Y007353D02*
X006205Y007353D01*
X006205Y006560D02*
X018931Y006560D01*
X018773Y006719D02*
X016365Y006719D01*
X016500Y006877D02*
X018702Y006877D01*
X019220Y006402D02*
X006205Y006402D01*
X006205Y008146D02*
X029725Y008146D01*
X029725Y008304D02*
X006205Y008304D01*
X006205Y008463D02*
X029725Y008463D01*
X029725Y008621D02*
X028303Y008621D01*
X028343Y008638D02*
X028146Y008556D01*
X027933Y008556D01*
X027736Y008638D01*
X027586Y008788D01*
X027504Y008985D01*
X027504Y009198D01*
X027586Y009395D01*
X027736Y009545D01*
X027933Y009627D01*
X028146Y009627D01*
X028343Y009545D01*
X028493Y009395D01*
X028575Y009198D01*
X028575Y008985D01*
X028493Y008788D01*
X028343Y008638D01*
X028485Y008780D02*
X029725Y008780D01*
X029725Y008938D02*
X028555Y008938D01*
X028575Y009097D02*
X029725Y009097D01*
X029725Y009256D02*
X028551Y009256D01*
X028474Y009414D02*
X029725Y009414D01*
X029725Y009573D02*
X028276Y009573D01*
X027803Y009573D02*
X024536Y009573D01*
X024602Y009545D02*
X024406Y009627D01*
X024193Y009627D01*
X023996Y009545D01*
X023845Y009395D01*
X023764Y009198D01*
X023764Y008985D01*
X023845Y008788D01*
X023996Y008638D01*
X024193Y008556D01*
X024406Y008556D01*
X024602Y008638D01*
X024753Y008788D01*
X024834Y008985D01*
X024834Y009198D01*
X024753Y009395D01*
X024602Y009545D01*
X024733Y009414D02*
X027605Y009414D01*
X027528Y009256D02*
X024811Y009256D01*
X024834Y009097D02*
X027504Y009097D01*
X027523Y008938D02*
X024815Y008938D01*
X024745Y008780D02*
X027594Y008780D01*
X027775Y008621D02*
X024563Y008621D01*
X024035Y008621D02*
X016267Y008621D01*
X016324Y008645D02*
X016502Y008823D01*
X016598Y009056D01*
X016598Y009308D01*
X016502Y009541D01*
X016324Y009719D01*
X016091Y009816D01*
X015839Y009816D01*
X015606Y009719D01*
X015427Y009541D01*
X015331Y009308D01*
X015331Y009056D01*
X015427Y008823D01*
X015606Y008645D01*
X015839Y008548D01*
X016091Y008548D01*
X016324Y008645D01*
X016459Y008780D02*
X023854Y008780D01*
X023783Y008938D02*
X016550Y008938D01*
X016598Y009097D02*
X023764Y009097D01*
X023788Y009256D02*
X016598Y009256D01*
X016554Y009414D02*
X023865Y009414D01*
X024063Y009573D02*
X016470Y009573D01*
X016294Y009731D02*
X029725Y009731D01*
X029725Y009890D02*
X006205Y009890D01*
X006205Y010048D02*
X029725Y010048D01*
X029725Y010207D02*
X011796Y010207D01*
X011787Y010199D02*
X011948Y010359D01*
X012035Y010568D01*
X012035Y010795D01*
X011948Y011005D01*
X011787Y011165D01*
X011578Y011252D01*
X011351Y011252D01*
X011142Y011165D01*
X010981Y011005D01*
X010895Y010795D01*
X010895Y010568D01*
X010981Y010359D01*
X011142Y010199D01*
X011351Y010112D01*
X011578Y010112D01*
X011787Y010199D01*
X011950Y010365D02*
X019231Y010365D01*
X019303Y010336D02*
X018998Y010462D01*
X018764Y010696D01*
X018638Y011001D01*
X018638Y011331D01*
X018764Y011637D01*
X018998Y011870D01*
X019303Y011997D01*
X019634Y011997D01*
X019939Y011870D01*
X020173Y011637D01*
X020299Y011331D01*
X020299Y011001D01*
X020173Y010696D01*
X019939Y010462D01*
X019634Y010336D01*
X019303Y010336D01*
X019706Y010365D02*
X029725Y010365D01*
X029725Y010524D02*
X020001Y010524D01*
X020159Y010682D02*
X029725Y010682D01*
X029725Y010841D02*
X020233Y010841D01*
X020298Y011000D02*
X029725Y011000D01*
X029725Y011158D02*
X020299Y011158D01*
X020299Y011317D02*
X029725Y011317D01*
X029725Y011475D02*
X020239Y011475D01*
X020174Y011634D02*
X029725Y011634D01*
X029725Y011792D02*
X020017Y011792D01*
X019744Y011951D02*
X029725Y011951D01*
X029725Y012109D02*
X006205Y012109D01*
X006205Y011951D02*
X019193Y011951D01*
X018920Y011792D02*
X016237Y011792D01*
X016351Y011745D02*
X016100Y011849D01*
X015829Y011849D01*
X015578Y011745D01*
X015386Y011553D01*
X015282Y011302D01*
X015282Y011030D01*
X015386Y010779D01*
X015578Y010587D01*
X015829Y010483D01*
X016100Y010483D01*
X016351Y010587D01*
X016543Y010779D01*
X016647Y011030D01*
X016647Y011302D01*
X016543Y011553D01*
X016351Y011745D01*
X016463Y011634D02*
X018763Y011634D01*
X018698Y011475D02*
X016576Y011475D01*
X016641Y011317D02*
X018638Y011317D01*
X018638Y011158D02*
X016647Y011158D01*
X016635Y011000D02*
X018639Y011000D01*
X018704Y010841D02*
X016569Y010841D01*
X016447Y010682D02*
X018778Y010682D01*
X018936Y010524D02*
X016199Y010524D01*
X015731Y010524D02*
X012016Y010524D01*
X012035Y010682D02*
X015482Y010682D01*
X015360Y010841D02*
X012016Y010841D01*
X011950Y011000D02*
X015294Y011000D01*
X015282Y011158D02*
X011794Y011158D01*
X011135Y011158D02*
X007649Y011158D01*
X007660Y011154D02*
X007584Y011179D01*
X007505Y011192D01*
X007495Y011192D01*
X007495Y010712D01*
X007975Y010712D01*
X007975Y010722D01*
X007962Y010801D01*
X007937Y010878D01*
X007901Y010949D01*
X007854Y011014D01*
X007797Y011071D01*
X007732Y011118D01*
X007660Y011154D01*
X007495Y011158D02*
X007434Y011158D01*
X007434Y011192D02*
X007424Y011192D01*
X007345Y011179D01*
X007269Y011154D01*
X007197Y011118D01*
X007132Y011071D01*
X007076Y011014D01*
X007028Y010949D01*
X006992Y010878D01*
X006967Y010801D01*
X006955Y010722D01*
X006955Y010712D01*
X007434Y010712D01*
X007434Y010652D01*
X006955Y010652D01*
X006955Y010642D01*
X006967Y010562D01*
X006992Y010486D01*
X007028Y010415D01*
X007076Y010350D01*
X007132Y010293D01*
X007197Y010246D01*
X007269Y010209D01*
X007345Y010184D01*
X007424Y010172D01*
X007434Y010172D01*
X007434Y010652D01*
X007495Y010652D01*
X007495Y010712D01*
X007434Y010712D01*
X007434Y011192D01*
X007280Y011158D02*
X006205Y011158D01*
X006205Y011000D02*
X007065Y011000D01*
X006980Y010841D02*
X006205Y010841D01*
X006205Y010682D02*
X007434Y010682D01*
X007495Y010682D02*
X010895Y010682D01*
X010913Y010524D02*
X007949Y010524D01*
X007937Y010486D02*
X007962Y010562D01*
X007975Y010642D01*
X007975Y010652D01*
X007495Y010652D01*
X007495Y010172D01*
X007505Y010172D01*
X007584Y010184D01*
X007660Y010209D01*
X007732Y010246D01*
X007797Y010293D01*
X007854Y010350D01*
X007901Y010415D01*
X007937Y010486D01*
X007865Y010365D02*
X010979Y010365D01*
X011134Y010207D02*
X007653Y010207D01*
X007495Y010207D02*
X007434Y010207D01*
X007276Y010207D02*
X006205Y010207D01*
X006205Y010365D02*
X007064Y010365D01*
X006980Y010524D02*
X006205Y010524D01*
X006205Y011317D02*
X015288Y011317D01*
X015353Y011475D02*
X006205Y011475D01*
X006205Y011634D02*
X015466Y011634D01*
X015692Y011792D02*
X006205Y011792D01*
X006205Y012268D02*
X029725Y012268D01*
X029725Y012426D02*
X006205Y012426D01*
X006205Y012585D02*
X029725Y012585D01*
X029725Y012744D02*
X017706Y012744D01*
X017732Y012754D02*
X017981Y013003D01*
X018115Y013327D01*
X018115Y013678D01*
X017981Y014003D01*
X017732Y014251D01*
X017408Y014386D01*
X017057Y014386D01*
X016732Y014251D01*
X016484Y014003D01*
X016349Y013678D01*
X016349Y013327D01*
X016484Y013003D01*
X016732Y012754D01*
X017057Y012620D01*
X017408Y012620D01*
X017732Y012754D01*
X017880Y012902D02*
X029725Y012902D01*
X029725Y013061D02*
X028890Y013061D01*
X028771Y012942D02*
X029205Y013375D01*
X029205Y013988D01*
X028771Y014422D01*
X028158Y014422D01*
X027725Y013988D01*
X027725Y013375D01*
X028158Y012942D01*
X028771Y012942D01*
X029048Y013219D02*
X029725Y013219D01*
X029725Y013378D02*
X029205Y013378D01*
X029205Y013536D02*
X029725Y013536D01*
X029725Y013695D02*
X029205Y013695D01*
X029205Y013853D02*
X029725Y013853D01*
X029725Y014012D02*
X029181Y014012D01*
X029023Y014170D02*
X029725Y014170D01*
X029725Y014329D02*
X028864Y014329D01*
X028065Y014329D02*
X017545Y014329D01*
X017813Y014170D02*
X027907Y014170D01*
X027748Y014012D02*
X017972Y014012D01*
X018043Y013853D02*
X027725Y013853D01*
X027725Y013695D02*
X018108Y013695D01*
X018115Y013536D02*
X027725Y013536D01*
X027725Y013378D02*
X018115Y013378D01*
X018070Y013219D02*
X027881Y013219D01*
X028039Y013061D02*
X018005Y013061D01*
X016758Y012744D02*
X006205Y012744D01*
X006205Y012902D02*
X016584Y012902D01*
X016460Y013061D02*
X006205Y013061D01*
X006205Y013219D02*
X016394Y013219D01*
X016349Y013378D02*
X010794Y013378D01*
X010844Y013428D02*
X010718Y013302D01*
X010554Y013234D01*
X010375Y013234D01*
X010211Y013302D01*
X010085Y013428D01*
X010017Y013593D01*
X010017Y013677D01*
X008693Y015001D01*
X008645Y015118D01*
X008645Y015246D01*
X008645Y015369D01*
X008585Y015428D01*
X008517Y015593D01*
X008517Y015771D01*
X008585Y015936D01*
X008711Y016061D01*
X008875Y016130D01*
X009054Y016130D01*
X009218Y016061D01*
X009344Y015936D01*
X009412Y015771D01*
X009412Y015593D01*
X009344Y015428D01*
X009285Y015369D01*
X009285Y015314D01*
X010469Y014130D01*
X010554Y014130D01*
X010718Y014061D01*
X010844Y013936D01*
X010912Y013771D01*
X010912Y013593D01*
X010844Y013428D01*
X010889Y013536D02*
X016349Y013536D01*
X016356Y013695D02*
X010912Y013695D01*
X010878Y013853D02*
X016422Y013853D01*
X016493Y014012D02*
X010768Y014012D01*
X010429Y014170D02*
X016651Y014170D01*
X016920Y014329D02*
X010270Y014329D01*
X010111Y014487D02*
X029725Y014487D01*
X029725Y014646D02*
X009953Y014646D01*
X009794Y014805D02*
X012209Y014805D01*
X012211Y014802D02*
X012375Y014734D01*
X012554Y014734D01*
X012718Y014802D01*
X012844Y014928D01*
X012912Y015093D01*
X012912Y015177D01*
X013969Y016234D01*
X014054Y016234D01*
X014218Y016302D01*
X014344Y016428D01*
X014412Y016593D01*
X014412Y016771D01*
X014344Y016936D01*
X014218Y017061D01*
X014054Y017130D01*
X013875Y017130D01*
X013711Y017061D01*
X013585Y016936D01*
X013517Y016771D01*
X013517Y016687D01*
X012460Y015630D01*
X012375Y015630D01*
X012211Y015561D01*
X012085Y015436D01*
X012017Y015271D01*
X012017Y015093D01*
X012085Y014928D01*
X012211Y014802D01*
X012070Y014963D02*
X009636Y014963D01*
X009477Y015122D02*
X012017Y015122D01*
X012021Y015280D02*
X009319Y015280D01*
X009349Y015439D02*
X012088Y015439D01*
X012297Y015597D02*
X009412Y015597D01*
X009412Y015756D02*
X012586Y015756D01*
X012744Y015914D02*
X009353Y015914D01*
X009191Y016073D02*
X012903Y016073D01*
X013062Y016231D02*
X006205Y016231D01*
X006205Y016073D02*
X008739Y016073D01*
X008576Y015914D02*
X006205Y015914D01*
X006205Y015756D02*
X008517Y015756D01*
X008517Y015597D02*
X006205Y015597D01*
X006205Y015439D02*
X008581Y015439D01*
X008645Y015280D02*
X006205Y015280D01*
X006205Y015122D02*
X008645Y015122D01*
X008731Y014963D02*
X006205Y014963D01*
X006205Y014805D02*
X008889Y014805D01*
X009048Y014646D02*
X006205Y014646D01*
X006205Y014487D02*
X009206Y014487D01*
X009365Y014329D02*
X006205Y014329D01*
X006205Y014170D02*
X009523Y014170D01*
X009682Y014012D02*
X006205Y014012D01*
X006205Y013853D02*
X009841Y013853D01*
X009999Y013695D02*
X006205Y013695D01*
X006205Y013536D02*
X010040Y013536D01*
X010135Y013378D02*
X006205Y013378D01*
X007434Y011000D02*
X007495Y011000D01*
X007495Y010841D02*
X007434Y010841D01*
X007434Y010524D02*
X007495Y010524D01*
X007495Y010365D02*
X007434Y010365D01*
X007949Y010841D02*
X010914Y010841D01*
X010979Y011000D02*
X007864Y011000D01*
X006205Y009731D02*
X015635Y009731D01*
X015459Y009573D02*
X006205Y009573D01*
X006205Y009414D02*
X015375Y009414D01*
X015331Y009256D02*
X006205Y009256D01*
X006205Y009097D02*
X015331Y009097D01*
X015379Y008938D02*
X006205Y008938D01*
X006205Y008780D02*
X015470Y008780D01*
X015662Y008621D02*
X006205Y008621D01*
X010465Y013682D02*
X008965Y015182D01*
X008965Y015682D01*
X006205Y016390D02*
X013220Y016390D01*
X013379Y016549D02*
X006205Y016549D01*
X006205Y016707D02*
X013517Y016707D01*
X013556Y016866D02*
X006205Y016866D01*
X006205Y017024D02*
X013674Y017024D01*
X013965Y016682D02*
X012465Y015182D01*
X012721Y014805D02*
X029725Y014805D01*
X029725Y014963D02*
X012859Y014963D01*
X012912Y015122D02*
X029725Y015122D01*
X029725Y015280D02*
X013015Y015280D01*
X013174Y015439D02*
X029725Y015439D01*
X029725Y015597D02*
X028926Y015597D01*
X028771Y015442D02*
X029205Y015875D01*
X029205Y016488D01*
X028771Y016922D01*
X028158Y016922D01*
X027725Y016488D01*
X027725Y015875D01*
X028158Y015442D01*
X028771Y015442D01*
X029085Y015756D02*
X029725Y015756D01*
X029725Y015914D02*
X029205Y015914D01*
X029205Y016073D02*
X029725Y016073D01*
X029725Y016231D02*
X029205Y016231D01*
X029205Y016390D02*
X029725Y016390D01*
X029725Y016549D02*
X029144Y016549D01*
X028986Y016707D02*
X029725Y016707D01*
X029725Y016866D02*
X028827Y016866D01*
X028102Y016866D02*
X020441Y016866D01*
X020437Y016878D02*
X020401Y016949D01*
X020354Y017014D01*
X020297Y017071D01*
X020232Y017118D01*
X020160Y017154D01*
X020084Y017179D01*
X020005Y017192D01*
X019995Y017192D01*
X019995Y016712D01*
X020475Y016712D01*
X020475Y016722D01*
X020462Y016801D01*
X020437Y016878D01*
X020343Y017024D02*
X029725Y017024D01*
X029725Y017183D02*
X020062Y017183D01*
X019995Y017183D02*
X019934Y017183D01*
X019934Y017192D02*
X019924Y017192D01*
X019845Y017179D01*
X019769Y017154D01*
X019697Y017118D01*
X019632Y017071D01*
X019576Y017014D01*
X019528Y016949D01*
X019492Y016878D01*
X019467Y016801D01*
X019455Y016722D01*
X019455Y016712D01*
X019934Y016712D01*
X019934Y016652D01*
X019455Y016652D01*
X019455Y016642D01*
X019467Y016562D01*
X019492Y016486D01*
X019528Y016415D01*
X019576Y016350D01*
X019632Y016293D01*
X019697Y016246D01*
X019769Y016209D01*
X019845Y016184D01*
X019924Y016172D01*
X019934Y016172D01*
X019934Y016652D01*
X019995Y016652D01*
X019995Y016712D01*
X019934Y016712D01*
X019934Y017192D01*
X019867Y017183D02*
X016245Y017183D01*
X016287Y017165D02*
X016078Y017252D01*
X015851Y017252D01*
X015642Y017165D01*
X015481Y017005D01*
X015395Y016795D01*
X015395Y016568D01*
X015481Y016359D01*
X015642Y016199D01*
X015851Y016112D01*
X016078Y016112D01*
X016287Y016199D01*
X016448Y016359D01*
X016535Y016568D01*
X016535Y016795D01*
X016448Y017005D01*
X016287Y017165D01*
X016428Y017024D02*
X019586Y017024D01*
X019488Y016866D02*
X016505Y016866D01*
X016535Y016707D02*
X019934Y016707D01*
X019995Y016707D02*
X027943Y016707D01*
X027785Y016549D02*
X020457Y016549D01*
X020462Y016562D02*
X020475Y016642D01*
X020475Y016652D01*
X019995Y016652D01*
X019995Y016172D01*
X020005Y016172D01*
X020084Y016184D01*
X020160Y016209D01*
X020232Y016246D01*
X020297Y016293D01*
X020354Y016350D01*
X020401Y016415D01*
X020437Y016486D01*
X020462Y016562D01*
X020383Y016390D02*
X027725Y016390D01*
X027725Y016231D02*
X020204Y016231D01*
X019995Y016231D02*
X019934Y016231D01*
X019934Y016390D02*
X019995Y016390D01*
X019995Y016549D02*
X019934Y016549D01*
X019934Y016866D02*
X019995Y016866D01*
X019995Y017024D02*
X019934Y017024D01*
X019472Y016549D02*
X016526Y016549D01*
X016461Y016390D02*
X019546Y016390D01*
X019725Y016231D02*
X016320Y016231D01*
X015609Y016231D02*
X013967Y016231D01*
X013808Y016073D02*
X027725Y016073D01*
X027725Y015914D02*
X013650Y015914D01*
X013491Y015756D02*
X027844Y015756D01*
X028003Y015597D02*
X013333Y015597D01*
X014306Y016390D02*
X015468Y016390D01*
X015403Y016549D02*
X014394Y016549D01*
X014412Y016707D02*
X015395Y016707D01*
X015424Y016866D02*
X014373Y016866D01*
X014256Y017024D02*
X015501Y017024D01*
X015684Y017183D02*
X006205Y017183D01*
X006205Y017341D02*
X029725Y017341D01*
X029725Y017500D02*
X006205Y017500D01*
X006205Y017658D02*
X029725Y017658D01*
X029725Y017817D02*
X006205Y017817D01*
X006205Y017975D02*
X029725Y017975D01*
X029725Y018134D02*
X017754Y018134D01*
X017732Y018113D02*
X017981Y018361D01*
X018115Y018685D01*
X018115Y019037D01*
X017981Y019361D01*
X017732Y019609D01*
X017408Y019744D01*
X017057Y019744D01*
X016732Y019609D01*
X016484Y019361D01*
X016349Y019037D01*
X016349Y018685D01*
X016484Y018361D01*
X016732Y018113D01*
X017057Y017978D01*
X017408Y017978D01*
X017732Y018113D01*
X017912Y018293D02*
X029725Y018293D01*
X029725Y018451D02*
X018018Y018451D01*
X018084Y018610D02*
X029725Y018610D01*
X029725Y018768D02*
X018115Y018768D01*
X018115Y018927D02*
X029725Y018927D01*
X029725Y019085D02*
X018095Y019085D01*
X018029Y019244D02*
X029725Y019244D01*
X029725Y019402D02*
X017940Y019402D01*
X017781Y019561D02*
X029725Y019561D01*
X029725Y019719D02*
X017467Y019719D01*
X016998Y019719D02*
X009001Y019719D01*
X009071Y019650D02*
X008870Y019851D01*
X008607Y019960D01*
X008322Y019960D01*
X008060Y019851D01*
X007858Y019650D01*
X007750Y019387D01*
X007750Y019103D01*
X007858Y018840D01*
X008060Y018639D01*
X008322Y018530D01*
X008607Y018530D01*
X008870Y018639D01*
X009071Y018840D01*
X009180Y019103D01*
X009180Y019387D01*
X009071Y019650D01*
X009108Y019561D02*
X016684Y019561D01*
X016525Y019402D02*
X009173Y019402D01*
X009180Y019244D02*
X016435Y019244D01*
X016370Y019085D02*
X009172Y019085D01*
X009107Y018927D02*
X016349Y018927D01*
X016349Y018768D02*
X008999Y018768D01*
X008799Y018610D02*
X016381Y018610D01*
X016446Y018451D02*
X006205Y018451D01*
X006205Y018293D02*
X016552Y018293D01*
X016711Y018134D02*
X006205Y018134D01*
X006205Y018610D02*
X008130Y018610D01*
X007930Y018768D02*
X006205Y018768D01*
X006205Y018927D02*
X007822Y018927D01*
X007757Y019085D02*
X006205Y019085D01*
X006205Y019244D02*
X007750Y019244D01*
X007756Y019402D02*
X006205Y019402D01*
X006205Y019561D02*
X007822Y019561D01*
X007928Y019719D02*
X006205Y019719D01*
X006205Y019878D02*
X008125Y019878D01*
X008804Y019878D02*
X029725Y019878D01*
X029725Y020036D02*
X006205Y020036D01*
X006205Y020195D02*
X029725Y020195D01*
X029725Y020354D02*
X006205Y020354D01*
X006205Y020512D02*
X018979Y020512D01*
X018998Y020494D02*
X019303Y020367D01*
X019634Y020367D01*
X019939Y020494D01*
X020173Y020727D01*
X020299Y021032D01*
X020299Y021363D01*
X020173Y021668D01*
X019939Y021902D01*
X019634Y022028D01*
X019303Y022028D01*
X018998Y021902D01*
X018764Y021668D01*
X018638Y021363D01*
X018638Y021032D01*
X018764Y020727D01*
X018998Y020494D01*
X018821Y020671D02*
X016299Y020671D01*
X016291Y020665D02*
X016370Y020722D01*
X016440Y020792D01*
X016497Y020871D01*
X016542Y020959D01*
X016572Y021052D01*
X016584Y021130D01*
X016032Y021130D01*
X016032Y020578D01*
X016110Y020590D01*
X016204Y020620D01*
X016291Y020665D01*
X016467Y020829D02*
X018722Y020829D01*
X018656Y020988D02*
X016551Y020988D01*
X016584Y021265D02*
X016572Y021344D01*
X016542Y021437D01*
X016497Y021524D01*
X016440Y021603D01*
X016370Y021673D01*
X016291Y021730D01*
X016204Y021775D01*
X016110Y021805D01*
X016032Y021818D01*
X016032Y021266D01*
X015897Y021266D01*
X015897Y021818D01*
X015819Y021805D01*
X015725Y021775D01*
X015638Y021730D01*
X015559Y021673D01*
X015489Y021603D01*
X015432Y021524D01*
X015387Y021437D01*
X015357Y021344D01*
X015345Y021265D01*
X015897Y021265D01*
X015897Y021130D01*
X016032Y021130D01*
X016032Y021265D01*
X016584Y021265D01*
X016578Y021305D02*
X018638Y021305D01*
X018638Y021146D02*
X016032Y021146D01*
X015897Y021146D02*
X006205Y021146D01*
X006205Y020988D02*
X015378Y020988D01*
X015387Y020959D02*
X015432Y020871D01*
X015489Y020792D01*
X015559Y020722D01*
X015638Y020665D01*
X015725Y020620D01*
X015819Y020590D01*
X015897Y020578D01*
X015897Y021130D01*
X015345Y021130D01*
X015357Y021052D01*
X015387Y020959D01*
X015462Y020829D02*
X006205Y020829D01*
X006205Y020671D02*
X015630Y020671D01*
X015897Y020671D02*
X016032Y020671D01*
X016032Y020829D02*
X015897Y020829D01*
X015897Y020988D02*
X016032Y020988D01*
X016032Y021305D02*
X015897Y021305D01*
X015897Y021463D02*
X016032Y021463D01*
X016032Y021622D02*
X015897Y021622D01*
X015897Y021780D02*
X016032Y021780D01*
X016186Y021780D02*
X018877Y021780D01*
X018745Y021622D02*
X016421Y021622D01*
X016528Y021463D02*
X018680Y021463D01*
X019088Y021939D02*
X009164Y021939D01*
X009180Y021977D02*
X009071Y021714D01*
X008870Y021513D01*
X008607Y021404D01*
X008322Y021404D01*
X008060Y021513D01*
X007858Y021714D01*
X007750Y021977D01*
X007750Y022261D01*
X007858Y022524D01*
X008060Y022725D01*
X008322Y022834D01*
X008607Y022834D01*
X008870Y022725D01*
X009071Y022524D01*
X009180Y022261D01*
X009180Y021977D01*
X009180Y022098D02*
X029725Y022098D01*
X029725Y022256D02*
X009180Y022256D01*
X009116Y022415D02*
X029725Y022415D01*
X029725Y022573D02*
X016151Y022573D01*
X016091Y022548D02*
X016324Y022645D01*
X016502Y022823D01*
X016598Y023056D01*
X016598Y023308D01*
X016502Y023541D01*
X016324Y023719D01*
X016091Y023816D01*
X015839Y023816D01*
X015606Y023719D01*
X015427Y023541D01*
X015331Y023308D01*
X015331Y023056D01*
X015427Y022823D01*
X015606Y022645D01*
X015839Y022548D01*
X016091Y022548D01*
X015778Y022573D02*
X009021Y022573D01*
X008853Y022732D02*
X015519Y022732D01*
X015399Y022890D02*
X006205Y022890D01*
X006205Y022732D02*
X008076Y022732D01*
X007908Y022573D02*
X006205Y022573D01*
X006205Y022415D02*
X007813Y022415D01*
X007750Y022256D02*
X006205Y022256D01*
X006205Y022098D02*
X007750Y022098D01*
X007765Y021939D02*
X006205Y021939D01*
X006205Y021780D02*
X007831Y021780D01*
X007950Y021622D02*
X006205Y021622D01*
X006205Y021463D02*
X008179Y021463D01*
X008750Y021463D02*
X015401Y021463D01*
X015351Y021305D02*
X006205Y021305D01*
X006205Y023049D02*
X015334Y023049D01*
X015331Y023207D02*
X006205Y023207D01*
X006205Y023366D02*
X015355Y023366D01*
X015421Y023524D02*
X006205Y023524D01*
X006205Y023683D02*
X015569Y023683D01*
X016360Y023683D02*
X027725Y023683D01*
X027725Y023524D02*
X016509Y023524D01*
X016574Y023366D02*
X027734Y023366D01*
X027725Y023375D02*
X028158Y022942D01*
X028771Y022942D01*
X029205Y023375D01*
X029205Y023988D01*
X028771Y024422D01*
X028158Y024422D01*
X027725Y023988D01*
X027725Y023375D01*
X027893Y023207D02*
X016598Y023207D01*
X016595Y023049D02*
X028051Y023049D01*
X028878Y023049D02*
X029725Y023049D01*
X029725Y023207D02*
X029037Y023207D01*
X029195Y023366D02*
X029725Y023366D01*
X029725Y023524D02*
X029205Y023524D01*
X029205Y023683D02*
X029725Y023683D01*
X029725Y023842D02*
X029205Y023842D01*
X029193Y024000D02*
X029725Y024000D01*
X029725Y024159D02*
X029034Y024159D01*
X028876Y024317D02*
X029725Y024317D01*
X029725Y024476D02*
X019953Y024476D01*
X019939Y024462D02*
X020173Y024696D01*
X020299Y025001D01*
X020299Y025331D01*
X020173Y025637D01*
X019939Y025870D01*
X019634Y025997D01*
X019303Y025997D01*
X018998Y025870D01*
X018764Y025637D01*
X018638Y025331D01*
X018638Y025001D01*
X018764Y024696D01*
X018998Y024462D01*
X019303Y024336D01*
X019634Y024336D01*
X019939Y024462D01*
X020111Y024634D02*
X029725Y024634D01*
X029725Y024793D02*
X020213Y024793D01*
X020278Y024951D02*
X029725Y024951D01*
X029725Y025110D02*
X020299Y025110D01*
X020299Y025268D02*
X029725Y025268D01*
X029725Y025427D02*
X020259Y025427D01*
X020194Y025586D02*
X029725Y025586D01*
X029725Y025744D02*
X020065Y025744D01*
X019861Y025903D02*
X029725Y025903D01*
X029725Y026061D02*
X005965Y026061D01*
X005965Y025903D02*
X019076Y025903D01*
X018872Y025744D02*
X016352Y025744D01*
X016351Y025745D02*
X016100Y025849D01*
X015829Y025849D01*
X015578Y025745D01*
X015386Y025553D01*
X015282Y025302D01*
X015282Y025030D01*
X015386Y024779D01*
X015578Y024587D01*
X015829Y024483D01*
X016100Y024483D01*
X016351Y024587D01*
X016543Y024779D01*
X016647Y025030D01*
X016647Y025302D01*
X016543Y025553D01*
X016351Y025745D01*
X016511Y025586D02*
X018743Y025586D01*
X018678Y025427D02*
X016596Y025427D01*
X016647Y025268D02*
X018638Y025268D01*
X018638Y025110D02*
X016647Y025110D01*
X016615Y024951D02*
X018658Y024951D01*
X018724Y024793D02*
X016549Y024793D01*
X016398Y024634D02*
X018826Y024634D01*
X018984Y024476D02*
X006205Y024476D01*
X006205Y024634D02*
X015531Y024634D01*
X015380Y024793D02*
X006205Y024793D01*
X006205Y024951D02*
X015314Y024951D01*
X015282Y025110D02*
X006205Y025110D01*
X006188Y025268D02*
X015282Y025268D01*
X015333Y025427D02*
X005965Y025427D01*
X005965Y025586D02*
X015418Y025586D01*
X015577Y025744D02*
X005965Y025744D01*
X005965Y026220D02*
X029725Y026220D01*
X029725Y026378D02*
X005965Y026378D01*
X005965Y026537D02*
X027660Y026537D01*
X027561Y026578D02*
X027823Y026469D01*
X028106Y026469D01*
X028368Y026578D01*
X028569Y026778D01*
X028677Y027040D01*
X028677Y027324D01*
X028569Y027585D01*
X028368Y027786D01*
X028106Y027894D01*
X027823Y027894D01*
X027561Y027786D01*
X027361Y027585D01*
X027252Y027324D01*
X027252Y027040D01*
X027361Y026778D01*
X027561Y026578D01*
X027444Y026695D02*
X017590Y026695D01*
X017732Y026754D02*
X017408Y026620D01*
X017057Y026620D01*
X016732Y026754D01*
X016484Y027003D01*
X016349Y027327D01*
X016349Y027678D01*
X016484Y028003D01*
X016732Y028251D01*
X017057Y028386D01*
X017408Y028386D01*
X017732Y028251D01*
X017981Y028003D01*
X018115Y027678D01*
X018115Y027327D01*
X017981Y027003D01*
X017732Y026754D01*
X017832Y026854D02*
X027329Y026854D01*
X027264Y027012D02*
X017985Y027012D01*
X018050Y027171D02*
X027252Y027171D01*
X027255Y027329D02*
X018115Y027329D01*
X018115Y027488D02*
X027320Y027488D01*
X027422Y027647D02*
X018115Y027647D01*
X018063Y027805D02*
X027608Y027805D01*
X028322Y027805D02*
X029725Y027805D01*
X029725Y027647D02*
X028507Y027647D01*
X028609Y027488D02*
X029725Y027488D01*
X029725Y027329D02*
X028675Y027329D01*
X028677Y027171D02*
X029725Y027171D01*
X029725Y027012D02*
X028665Y027012D01*
X028600Y026854D02*
X029725Y026854D01*
X029725Y026695D02*
X028486Y026695D01*
X028269Y026537D02*
X029725Y026537D01*
X029725Y027964D02*
X017997Y027964D01*
X017861Y028122D02*
X029725Y028122D01*
X029725Y028281D02*
X017661Y028281D01*
X016803Y028281D02*
X005965Y028281D01*
X005965Y028439D02*
X029725Y028439D01*
X029725Y028598D02*
X005965Y028598D01*
X005965Y028756D02*
X029725Y028756D01*
X029725Y028915D02*
X005965Y028915D01*
X005965Y028122D02*
X016603Y028122D01*
X016468Y027964D02*
X005965Y027964D01*
X005965Y027805D02*
X016402Y027805D01*
X016349Y027647D02*
X005965Y027647D01*
X005965Y027488D02*
X016349Y027488D01*
X016349Y027329D02*
X005965Y027329D01*
X005965Y027171D02*
X016414Y027171D01*
X016480Y027012D02*
X005965Y027012D01*
X005965Y026854D02*
X016633Y026854D01*
X016874Y026695D02*
X005965Y026695D01*
X006205Y024317D02*
X028053Y024317D01*
X027895Y024159D02*
X006205Y024159D01*
X006205Y024000D02*
X027736Y024000D01*
X027725Y023842D02*
X006205Y023842D01*
X009098Y021780D02*
X015743Y021780D01*
X015508Y021622D02*
X008979Y021622D01*
X016411Y022732D02*
X029725Y022732D01*
X029725Y022890D02*
X016530Y022890D01*
X019849Y021939D02*
X029725Y021939D01*
X029725Y021780D02*
X028912Y021780D01*
X028771Y021922D02*
X028158Y021922D01*
X027725Y021488D01*
X027725Y020875D01*
X028158Y020442D01*
X028771Y020442D01*
X029205Y020875D01*
X029205Y021488D01*
X028771Y021922D01*
X029071Y021622D02*
X029725Y021622D01*
X029725Y021463D02*
X029205Y021463D01*
X029205Y021305D02*
X029725Y021305D01*
X029725Y021146D02*
X029205Y021146D01*
X029205Y020988D02*
X029725Y020988D01*
X029725Y020829D02*
X029158Y020829D01*
X029000Y020671D02*
X029725Y020671D01*
X029725Y020512D02*
X028841Y020512D01*
X028088Y020512D02*
X019958Y020512D01*
X020116Y020671D02*
X027929Y020671D01*
X027771Y020829D02*
X020215Y020829D01*
X020281Y020988D02*
X027725Y020988D01*
X027725Y021146D02*
X020299Y021146D01*
X020299Y021305D02*
X027725Y021305D01*
X027725Y021463D02*
X020257Y021463D01*
X020192Y021622D02*
X027858Y021622D01*
X028017Y021780D02*
X020060Y021780D01*
X024697Y005451D02*
X027642Y005451D01*
X027543Y005292D02*
X024795Y005292D01*
X024834Y005133D02*
X027504Y005133D01*
X027508Y004975D02*
X024830Y004975D01*
X024765Y004816D02*
X027574Y004816D01*
X027716Y004658D02*
X024623Y004658D01*
X015549Y003072D02*
X014527Y003072D01*
M02*
