G75*
G70*
%OFA0B0*%
%FSLAX24Y24*%
%IPPOS*%
%LPD*%
%AMOC8*
5,1,8,0,0,1.08239X$1,22.5*
%
%ADD10C,0.0295*%
%ADD11C,0.0039*%
D10*
X023069Y019356D02*
X025319Y017834D01*
X025318Y017834D02*
X025351Y017814D01*
X025386Y017797D01*
X025423Y017784D01*
X025460Y017774D01*
X025499Y017768D01*
X025537Y017766D01*
X025576Y017768D01*
X025614Y017773D01*
X025652Y017783D01*
X025689Y017796D01*
X025724Y017812D01*
X025757Y017832D01*
X025788Y017855D01*
X025817Y017881D01*
X025843Y017909D01*
X025866Y017941D01*
X025886Y017974D01*
X025903Y018009D01*
X025916Y018045D01*
X025925Y018083D01*
X025931Y018121D01*
X025933Y018160D01*
X025933Y021204D01*
X025931Y021243D01*
X025925Y021281D01*
X025916Y021319D01*
X025903Y021355D01*
X025886Y021390D01*
X025866Y021423D01*
X025843Y021455D01*
X025817Y021483D01*
X025788Y021509D01*
X025757Y021532D01*
X025724Y021552D01*
X025689Y021568D01*
X025652Y021581D01*
X025614Y021591D01*
X025576Y021596D01*
X025537Y021598D01*
X025499Y021596D01*
X025460Y021590D01*
X025423Y021580D01*
X025386Y021567D01*
X025351Y021550D01*
X025318Y021530D01*
X025319Y021530D02*
X023069Y020008D01*
X023068Y020008D02*
X023037Y019985D01*
X023009Y019959D01*
X022983Y019931D01*
X022961Y019900D01*
X022941Y019867D01*
X022925Y019832D01*
X022912Y019796D01*
X022902Y019758D01*
X022897Y019720D01*
X022895Y019682D01*
X022897Y019644D01*
X022902Y019606D01*
X022912Y019568D01*
X022925Y019532D01*
X022941Y019497D01*
X022961Y019464D01*
X022983Y019433D01*
X023009Y019405D01*
X023037Y019379D01*
X023068Y019356D01*
D11*
X023669Y019485D02*
X023669Y019977D01*
X024949Y019977D01*
X024752Y019682D01*
X025244Y019682D01*
X025146Y019820D01*
X025638Y019682D01*
X025185Y019406D01*
X025244Y019583D01*
X024358Y019387D01*
X024654Y019780D01*
X023669Y019485D01*
X023669Y019520D02*
X023786Y019520D01*
X023669Y019558D02*
X023912Y019558D01*
X024039Y019596D02*
X023669Y019596D01*
X023669Y019634D02*
X024165Y019634D01*
X024291Y019672D02*
X023669Y019672D01*
X023669Y019710D02*
X024418Y019710D01*
X024544Y019747D02*
X023669Y019747D01*
X023669Y019785D02*
X024821Y019785D01*
X024796Y019747D02*
X024629Y019747D01*
X024601Y019710D02*
X024770Y019710D01*
X024846Y019823D02*
X023669Y019823D01*
X023669Y019861D02*
X024871Y019861D01*
X024897Y019899D02*
X023669Y019899D01*
X023669Y019937D02*
X024922Y019937D01*
X024947Y019975D02*
X023669Y019975D01*
X024401Y019444D02*
X024617Y019444D01*
X024487Y019558D02*
X025129Y019558D01*
X025223Y019520D02*
X025372Y019520D01*
X025434Y019558D02*
X025236Y019558D01*
X025210Y019482D02*
X025310Y019482D01*
X025247Y019444D02*
X025198Y019444D01*
X024959Y019520D02*
X024458Y019520D01*
X024430Y019482D02*
X024788Y019482D01*
X024572Y019672D02*
X025621Y019672D01*
X025559Y019634D02*
X024544Y019634D01*
X024515Y019596D02*
X025496Y019596D01*
X025539Y019710D02*
X025224Y019710D01*
X025197Y019747D02*
X025404Y019747D01*
X025268Y019785D02*
X025170Y019785D01*
X024447Y019406D02*
X024373Y019406D01*
M02*
