%
M48
M72
T01C0.0276
T02C0.0315
T03C0.0400
T04C0.0440
T05C0.0591
T06C0.0787
T07C0.0886
T08C0.0945
T09C0.0950
%
T01
X11465Y5682
X10465Y13682
X12465Y15182
X13965Y16682
X12465Y19182
X8965Y15682
X8965Y25182
X12965Y25182
T02
X24299Y9091
X28039Y9091
X28039Y5091
X24299Y5091
T03
X28465Y13682
X28465Y16182
X28465Y21182
X28465Y23682
T04
X19965Y16682
X15965Y16682
X11465Y10682
X7465Y10682
X7465Y2182
X11465Y2182
X15965Y2682
X19965Y2682
T05
X15965Y7198
X15965Y11166
X15965Y21198
X15965Y25166
T06
X15965Y23182
X19469Y25166
X19469Y21198
X19469Y11166
X15965Y9182
X19469Y7198
T07
X17232Y4861
X17232Y13503
X17232Y18861
X17232Y27503
T08
X4965Y2182
X27965Y2182
X27965Y27182
X4965Y27182
T09
X8465Y22119
X8465Y19245
M30
