G75*
G70*
%OFA0B0*%
%FSLAX24Y24*%
%IPPOS*%
%LPD*%
%AMOC8*
5,1,8,0,0,1.08239X$1,22.5*
%
%ADD10C,0.0000*%
%ADD11C,0.0886*%
%ADD12C,0.1286*%
%ADD13C,0.1181*%
%ADD14R,0.1150X0.0500*%
%ADD15C,0.0660*%
%ADD16R,0.0472X0.1260*%
%ADD17R,0.0669X0.2087*%
%ADD18C,0.0591*%
%ADD19OC8,0.1000*%
%ADD20R,0.2205X0.1378*%
%ADD21R,0.1122X0.0394*%
%ADD22R,0.0472X0.0472*%
%ADD23R,0.0433X0.0394*%
%ADD24C,0.0160*%
%ADD25C,0.0416*%
%ADD26C,0.0860*%
D10*
X003465Y001682D02*
X003465Y002682D01*
X004965Y004182D01*
X005965Y004182D01*
X005965Y025182D01*
X004965Y025182D01*
X003465Y026682D01*
X003465Y027682D01*
X004965Y029182D01*
X029965Y029182D01*
X029965Y000182D01*
X004965Y000182D01*
X003465Y001682D01*
X004493Y002182D02*
X004495Y002225D01*
X004501Y002267D01*
X004511Y002309D01*
X004524Y002350D01*
X004541Y002390D01*
X004562Y002427D01*
X004586Y002463D01*
X004613Y002496D01*
X004643Y002527D01*
X004676Y002555D01*
X004711Y002580D01*
X004748Y002601D01*
X004787Y002619D01*
X004827Y002633D01*
X004869Y002644D01*
X004911Y002651D01*
X004954Y002654D01*
X004997Y002653D01*
X005040Y002648D01*
X005082Y002639D01*
X005123Y002627D01*
X005163Y002611D01*
X005201Y002591D01*
X005237Y002568D01*
X005271Y002541D01*
X005303Y002512D01*
X005331Y002480D01*
X005357Y002445D01*
X005379Y002409D01*
X005398Y002370D01*
X005413Y002330D01*
X005425Y002289D01*
X005433Y002246D01*
X005437Y002203D01*
X005437Y002161D01*
X005433Y002118D01*
X005425Y002075D01*
X005413Y002034D01*
X005398Y001994D01*
X005379Y001955D01*
X005357Y001919D01*
X005331Y001884D01*
X005303Y001852D01*
X005271Y001823D01*
X005237Y001796D01*
X005201Y001773D01*
X005163Y001753D01*
X005123Y001737D01*
X005082Y001725D01*
X005040Y001716D01*
X004997Y001711D01*
X004954Y001710D01*
X004911Y001713D01*
X004869Y001720D01*
X004827Y001731D01*
X004787Y001745D01*
X004748Y001763D01*
X004711Y001784D01*
X004676Y001809D01*
X004643Y001837D01*
X004613Y001868D01*
X004586Y001901D01*
X004562Y001937D01*
X004541Y001974D01*
X004524Y002014D01*
X004511Y002055D01*
X004501Y002097D01*
X004495Y002139D01*
X004493Y002182D01*
X015571Y009182D02*
X015573Y009221D01*
X015579Y009260D01*
X015589Y009298D01*
X015602Y009335D01*
X015619Y009370D01*
X015639Y009404D01*
X015663Y009435D01*
X015690Y009464D01*
X015719Y009490D01*
X015751Y009513D01*
X015785Y009533D01*
X015821Y009549D01*
X015858Y009561D01*
X015897Y009570D01*
X015936Y009575D01*
X015975Y009576D01*
X016014Y009573D01*
X016053Y009566D01*
X016090Y009555D01*
X016127Y009541D01*
X016162Y009523D01*
X016195Y009502D01*
X016226Y009477D01*
X016254Y009450D01*
X016279Y009420D01*
X016301Y009387D01*
X016320Y009353D01*
X016335Y009317D01*
X016347Y009279D01*
X016355Y009241D01*
X016359Y009202D01*
X016359Y009162D01*
X016355Y009123D01*
X016347Y009085D01*
X016335Y009047D01*
X016320Y009011D01*
X016301Y008977D01*
X016279Y008944D01*
X016254Y008914D01*
X016226Y008887D01*
X016195Y008862D01*
X016162Y008841D01*
X016127Y008823D01*
X016090Y008809D01*
X016053Y008798D01*
X016014Y008791D01*
X015975Y008788D01*
X015936Y008789D01*
X015897Y008794D01*
X015858Y008803D01*
X015821Y008815D01*
X015785Y008831D01*
X015751Y008851D01*
X015719Y008874D01*
X015690Y008900D01*
X015663Y008929D01*
X015639Y008960D01*
X015619Y008994D01*
X015602Y009029D01*
X015589Y009066D01*
X015579Y009104D01*
X015573Y009143D01*
X015571Y009182D01*
X007990Y019245D02*
X007992Y019288D01*
X007998Y019331D01*
X008008Y019373D01*
X008021Y019414D01*
X008038Y019454D01*
X008059Y019492D01*
X008083Y019528D01*
X008111Y019561D01*
X008141Y019592D01*
X008174Y019620D01*
X008209Y019645D01*
X008246Y019667D01*
X008286Y019685D01*
X008326Y019699D01*
X008368Y019710D01*
X008411Y019717D01*
X008454Y019720D01*
X008497Y019719D01*
X008540Y019714D01*
X008583Y019705D01*
X008624Y019693D01*
X008664Y019676D01*
X008702Y019656D01*
X008739Y019633D01*
X008773Y019607D01*
X008805Y019577D01*
X008833Y019545D01*
X008859Y019510D01*
X008882Y019473D01*
X008901Y019434D01*
X008916Y019394D01*
X008928Y019352D01*
X008936Y019310D01*
X008940Y019267D01*
X008940Y019223D01*
X008936Y019180D01*
X008928Y019138D01*
X008916Y019096D01*
X008901Y019056D01*
X008882Y019017D01*
X008859Y018980D01*
X008833Y018945D01*
X008805Y018913D01*
X008773Y018883D01*
X008739Y018857D01*
X008703Y018834D01*
X008664Y018814D01*
X008624Y018797D01*
X008583Y018785D01*
X008540Y018776D01*
X008497Y018771D01*
X008454Y018770D01*
X008411Y018773D01*
X008368Y018780D01*
X008326Y018791D01*
X008286Y018805D01*
X008246Y018823D01*
X008209Y018845D01*
X008174Y018870D01*
X008141Y018898D01*
X008111Y018929D01*
X008083Y018962D01*
X008059Y018998D01*
X008038Y019036D01*
X008021Y019076D01*
X008008Y019117D01*
X007998Y019159D01*
X007992Y019202D01*
X007990Y019245D01*
X007990Y022119D02*
X007992Y022162D01*
X007998Y022205D01*
X008008Y022247D01*
X008021Y022288D01*
X008038Y022328D01*
X008059Y022366D01*
X008083Y022402D01*
X008111Y022435D01*
X008141Y022466D01*
X008174Y022494D01*
X008209Y022519D01*
X008246Y022541D01*
X008286Y022559D01*
X008326Y022573D01*
X008368Y022584D01*
X008411Y022591D01*
X008454Y022594D01*
X008497Y022593D01*
X008540Y022588D01*
X008583Y022579D01*
X008624Y022567D01*
X008664Y022550D01*
X008702Y022530D01*
X008739Y022507D01*
X008773Y022481D01*
X008805Y022451D01*
X008833Y022419D01*
X008859Y022384D01*
X008882Y022347D01*
X008901Y022308D01*
X008916Y022268D01*
X008928Y022226D01*
X008936Y022184D01*
X008940Y022141D01*
X008940Y022097D01*
X008936Y022054D01*
X008928Y022012D01*
X008916Y021970D01*
X008901Y021930D01*
X008882Y021891D01*
X008859Y021854D01*
X008833Y021819D01*
X008805Y021787D01*
X008773Y021757D01*
X008739Y021731D01*
X008703Y021708D01*
X008664Y021688D01*
X008624Y021671D01*
X008583Y021659D01*
X008540Y021650D01*
X008497Y021645D01*
X008454Y021644D01*
X008411Y021647D01*
X008368Y021654D01*
X008326Y021665D01*
X008286Y021679D01*
X008246Y021697D01*
X008209Y021719D01*
X008174Y021744D01*
X008141Y021772D01*
X008111Y021803D01*
X008083Y021836D01*
X008059Y021872D01*
X008038Y021910D01*
X008021Y021950D01*
X008008Y021991D01*
X007998Y022033D01*
X007992Y022076D01*
X007990Y022119D01*
X004493Y027182D02*
X004495Y027225D01*
X004501Y027267D01*
X004511Y027309D01*
X004524Y027350D01*
X004541Y027390D01*
X004562Y027427D01*
X004586Y027463D01*
X004613Y027496D01*
X004643Y027527D01*
X004676Y027555D01*
X004711Y027580D01*
X004748Y027601D01*
X004787Y027619D01*
X004827Y027633D01*
X004869Y027644D01*
X004911Y027651D01*
X004954Y027654D01*
X004997Y027653D01*
X005040Y027648D01*
X005082Y027639D01*
X005123Y027627D01*
X005163Y027611D01*
X005201Y027591D01*
X005237Y027568D01*
X005271Y027541D01*
X005303Y027512D01*
X005331Y027480D01*
X005357Y027445D01*
X005379Y027409D01*
X005398Y027370D01*
X005413Y027330D01*
X005425Y027289D01*
X005433Y027246D01*
X005437Y027203D01*
X005437Y027161D01*
X005433Y027118D01*
X005425Y027075D01*
X005413Y027034D01*
X005398Y026994D01*
X005379Y026955D01*
X005357Y026919D01*
X005331Y026884D01*
X005303Y026852D01*
X005271Y026823D01*
X005237Y026796D01*
X005201Y026773D01*
X005163Y026753D01*
X005123Y026737D01*
X005082Y026725D01*
X005040Y026716D01*
X004997Y026711D01*
X004954Y026710D01*
X004911Y026713D01*
X004869Y026720D01*
X004827Y026731D01*
X004787Y026745D01*
X004748Y026763D01*
X004711Y026784D01*
X004676Y026809D01*
X004643Y026837D01*
X004613Y026868D01*
X004586Y026901D01*
X004562Y026937D01*
X004541Y026974D01*
X004524Y027014D01*
X004511Y027055D01*
X004501Y027097D01*
X004495Y027139D01*
X004493Y027182D01*
X015571Y023182D02*
X015573Y023221D01*
X015579Y023260D01*
X015589Y023298D01*
X015602Y023335D01*
X015619Y023370D01*
X015639Y023404D01*
X015663Y023435D01*
X015690Y023464D01*
X015719Y023490D01*
X015751Y023513D01*
X015785Y023533D01*
X015821Y023549D01*
X015858Y023561D01*
X015897Y023570D01*
X015936Y023575D01*
X015975Y023576D01*
X016014Y023573D01*
X016053Y023566D01*
X016090Y023555D01*
X016127Y023541D01*
X016162Y023523D01*
X016195Y023502D01*
X016226Y023477D01*
X016254Y023450D01*
X016279Y023420D01*
X016301Y023387D01*
X016320Y023353D01*
X016335Y023317D01*
X016347Y023279D01*
X016355Y023241D01*
X016359Y023202D01*
X016359Y023162D01*
X016355Y023123D01*
X016347Y023085D01*
X016335Y023047D01*
X016320Y023011D01*
X016301Y022977D01*
X016279Y022944D01*
X016254Y022914D01*
X016226Y022887D01*
X016195Y022862D01*
X016162Y022841D01*
X016127Y022823D01*
X016090Y022809D01*
X016053Y022798D01*
X016014Y022791D01*
X015975Y022788D01*
X015936Y022789D01*
X015897Y022794D01*
X015858Y022803D01*
X015821Y022815D01*
X015785Y022831D01*
X015751Y022851D01*
X015719Y022874D01*
X015690Y022900D01*
X015663Y022929D01*
X015639Y022960D01*
X015619Y022994D01*
X015602Y023029D01*
X015589Y023066D01*
X015579Y023104D01*
X015573Y023143D01*
X015571Y023182D01*
X027493Y027182D02*
X027495Y027225D01*
X027501Y027267D01*
X027511Y027309D01*
X027524Y027350D01*
X027541Y027390D01*
X027562Y027427D01*
X027586Y027463D01*
X027613Y027496D01*
X027643Y027527D01*
X027676Y027555D01*
X027711Y027580D01*
X027748Y027601D01*
X027787Y027619D01*
X027827Y027633D01*
X027869Y027644D01*
X027911Y027651D01*
X027954Y027654D01*
X027997Y027653D01*
X028040Y027648D01*
X028082Y027639D01*
X028123Y027627D01*
X028163Y027611D01*
X028201Y027591D01*
X028237Y027568D01*
X028271Y027541D01*
X028303Y027512D01*
X028331Y027480D01*
X028357Y027445D01*
X028379Y027409D01*
X028398Y027370D01*
X028413Y027330D01*
X028425Y027289D01*
X028433Y027246D01*
X028437Y027203D01*
X028437Y027161D01*
X028433Y027118D01*
X028425Y027075D01*
X028413Y027034D01*
X028398Y026994D01*
X028379Y026955D01*
X028357Y026919D01*
X028331Y026884D01*
X028303Y026852D01*
X028271Y026823D01*
X028237Y026796D01*
X028201Y026773D01*
X028163Y026753D01*
X028123Y026737D01*
X028082Y026725D01*
X028040Y026716D01*
X027997Y026711D01*
X027954Y026710D01*
X027911Y026713D01*
X027869Y026720D01*
X027827Y026731D01*
X027787Y026745D01*
X027748Y026763D01*
X027711Y026784D01*
X027676Y026809D01*
X027643Y026837D01*
X027613Y026868D01*
X027586Y026901D01*
X027562Y026937D01*
X027541Y026974D01*
X027524Y027014D01*
X027511Y027055D01*
X027501Y027097D01*
X027495Y027139D01*
X027493Y027182D01*
X027493Y002182D02*
X027495Y002225D01*
X027501Y002267D01*
X027511Y002309D01*
X027524Y002350D01*
X027541Y002390D01*
X027562Y002427D01*
X027586Y002463D01*
X027613Y002496D01*
X027643Y002527D01*
X027676Y002555D01*
X027711Y002580D01*
X027748Y002601D01*
X027787Y002619D01*
X027827Y002633D01*
X027869Y002644D01*
X027911Y002651D01*
X027954Y002654D01*
X027997Y002653D01*
X028040Y002648D01*
X028082Y002639D01*
X028123Y002627D01*
X028163Y002611D01*
X028201Y002591D01*
X028237Y002568D01*
X028271Y002541D01*
X028303Y002512D01*
X028331Y002480D01*
X028357Y002445D01*
X028379Y002409D01*
X028398Y002370D01*
X028413Y002330D01*
X028425Y002289D01*
X028433Y002246D01*
X028437Y002203D01*
X028437Y002161D01*
X028433Y002118D01*
X028425Y002075D01*
X028413Y002034D01*
X028398Y001994D01*
X028379Y001955D01*
X028357Y001919D01*
X028331Y001884D01*
X028303Y001852D01*
X028271Y001823D01*
X028237Y001796D01*
X028201Y001773D01*
X028163Y001753D01*
X028123Y001737D01*
X028082Y001725D01*
X028040Y001716D01*
X027997Y001711D01*
X027954Y001710D01*
X027911Y001713D01*
X027869Y001720D01*
X027827Y001731D01*
X027787Y001745D01*
X027748Y001763D01*
X027711Y001784D01*
X027676Y001809D01*
X027643Y001837D01*
X027613Y001868D01*
X027586Y001901D01*
X027562Y001937D01*
X027541Y001974D01*
X027524Y002014D01*
X027511Y002055D01*
X027501Y002097D01*
X027495Y002139D01*
X027493Y002182D01*
D11*
X015965Y007198D03*
X015965Y011166D03*
X015965Y021198D03*
X015965Y025166D03*
D12*
X017232Y027503D03*
X017232Y018861D03*
X017232Y013503D03*
X017232Y004861D03*
D13*
X019469Y007198D03*
X019469Y011166D03*
X019469Y021198D03*
X019469Y025166D03*
D14*
X012441Y021272D03*
X012441Y020091D03*
X010618Y020091D03*
X010618Y021272D03*
D15*
X015965Y016682D03*
X019965Y016682D03*
X011465Y010682D03*
X007465Y010682D03*
X007465Y002182D03*
X011465Y002182D03*
X015965Y002682D03*
X019965Y002682D03*
D16*
X012358Y025442D03*
X011571Y025442D03*
X008358Y025442D03*
X007571Y025442D03*
D17*
X006567Y027599D03*
X009362Y027599D03*
X010567Y027599D03*
X013362Y027599D03*
D18*
X024299Y009091D03*
X028039Y009091D03*
X028039Y005091D03*
X024299Y005091D03*
D19*
X028465Y013682D03*
X028465Y016182D03*
X028465Y021182D03*
X028465Y023682D03*
D20*
X024465Y023682D03*
X024465Y027737D03*
X024465Y016182D03*
X024465Y012127D03*
D21*
X011049Y012682D03*
X011049Y014682D03*
X011049Y015682D03*
X011049Y016682D03*
X011049Y017682D03*
X007880Y017682D03*
X007880Y016682D03*
X007890Y015682D03*
X007880Y014682D03*
X007880Y012682D03*
X007880Y009182D03*
X007880Y008182D03*
X007890Y007182D03*
X007880Y006182D03*
X007880Y004182D03*
X011049Y004182D03*
X011049Y006182D03*
X011049Y007182D03*
X011049Y008182D03*
X011049Y009182D03*
D22*
X011551Y023682D03*
X012378Y023682D03*
X008378Y023682D03*
X007551Y023682D03*
D23*
X008965Y023847D03*
X008965Y024517D03*
X012965Y024517D03*
X012965Y023847D03*
D24*
X012799Y023682D01*
X012378Y023682D01*
X011571Y023702D02*
X011551Y023682D01*
X011465Y023682D01*
X011465Y022682D01*
X010965Y023182D01*
X007965Y023182D01*
X007551Y023595D01*
X007551Y023682D01*
X007551Y025422D01*
X007571Y025442D01*
X008358Y025442D02*
X008724Y025442D01*
X008965Y025182D01*
X008965Y024517D01*
X008965Y023847D02*
X008799Y023682D01*
X008378Y023682D01*
X007551Y023682D02*
X007465Y023682D01*
X010618Y021272D02*
X010874Y021272D01*
X011465Y020682D01*
X011465Y018682D01*
X011965Y018182D01*
X011965Y016182D01*
X011465Y015682D01*
X011049Y015682D01*
X010465Y015682D01*
X009965Y015182D01*
X009965Y007682D01*
X010465Y007182D01*
X011049Y007182D01*
X011049Y006182D02*
X011049Y006097D01*
X011465Y005682D01*
X011049Y004267D02*
X013465Y006682D01*
X013465Y020682D01*
X012965Y021182D01*
X012531Y021182D01*
X012441Y021272D01*
X011965Y022182D02*
X011465Y022682D01*
X011965Y022182D02*
X012965Y022182D01*
X013965Y021182D01*
X013965Y016682D01*
X012465Y015182D02*
X011965Y014682D01*
X011049Y014682D01*
X010465Y013682D02*
X010965Y013182D01*
X010965Y012767D01*
X011049Y012682D01*
X011465Y012682D01*
X011465Y010682D01*
X007880Y012682D02*
X007465Y012682D01*
X007465Y010682D01*
X008965Y015682D02*
X008965Y017182D01*
X010465Y018682D01*
X010465Y019938D01*
X010618Y020091D01*
X012441Y020091D02*
X012465Y020091D01*
X012465Y019182D01*
X015965Y019682D02*
X015965Y016682D01*
X015965Y011182D01*
X015965Y011166D02*
X016949Y010182D01*
X016965Y010182D01*
X016965Y006682D01*
X015965Y005682D01*
X015965Y002682D01*
X011465Y002182D02*
X011465Y003767D01*
X011049Y004182D01*
X011049Y004267D01*
X007880Y004182D02*
X007465Y004182D01*
X007465Y002182D01*
X015965Y019682D02*
X016965Y020682D01*
X016965Y024182D01*
X016949Y024182D01*
X015965Y025166D01*
X012965Y025182D02*
X012965Y024517D01*
X012965Y025182D02*
X012724Y025442D01*
X012358Y025442D01*
X011571Y025442D02*
X011571Y025288D01*
X011571Y023702D01*
X011465Y025182D02*
X011571Y025288D01*
X024465Y027682D02*
X024465Y027737D01*
D25*
X013965Y016682D03*
X012465Y015182D03*
X010465Y013682D03*
X008965Y015682D03*
X012465Y019182D03*
X012965Y025182D03*
X008965Y025182D03*
X011465Y005682D03*
D26*
X019469Y007198D02*
X021362Y009091D01*
X024299Y009091D01*
X024965Y008426D01*
X024965Y005682D01*
X024374Y005091D01*
X024299Y005091D01*
X028039Y005091D02*
X028039Y009091D01*
X028039Y009757D01*
X028465Y010182D01*
X028465Y013682D01*
X028465Y016182D02*
X024465Y016182D01*
X024465Y012127D02*
X023504Y011166D01*
X019469Y011166D01*
X019469Y021198D02*
X027449Y021198D01*
X028465Y021182D01*
X028465Y023682D02*
X024465Y023682D01*
X024465Y027682D02*
X022465Y027682D01*
X020465Y025182D01*
X019469Y025166D01*
M02*
