G75*
G70*
%OFA0B0*%
%FSLAX24Y24*%
%IPPOS*%
%LPD*%
%AMOC8*
5,1,8,0,0,1.08239X$1,22.5*
%
%ADD10C,0.1025*%
%ADD11C,0.0966*%
%ADD12C,0.0867*%
%ADD13C,0.1366*%
%ADD14C,0.1261*%
%ADD15R,0.1230X0.0580*%
%ADD16C,0.1030*%
%ADD17C,0.0740*%
%ADD18R,0.0552X0.1340*%
%ADD19R,0.0749X0.2167*%
%ADD20C,0.0671*%
%ADD21OC8,0.1080*%
%ADD22R,0.2285X0.1458*%
%ADD23R,0.1202X0.0474*%
%ADD24R,0.0552X0.0552*%
%ADD25R,0.0513X0.0474*%
%ADD26C,0.0496*%
D10*
X004965Y002182D03*
X027965Y002182D03*
X027965Y027182D03*
X004965Y027182D03*
D11*
X015965Y025166D03*
X015965Y021198D03*
X015965Y011166D03*
X015965Y007198D03*
D12*
X015965Y009182D03*
X015965Y023182D03*
D13*
X017232Y018861D03*
X017232Y013503D03*
X017232Y004861D03*
X017232Y027503D03*
D14*
X019469Y025166D03*
X019469Y021198D03*
X019469Y011166D03*
X019469Y007198D03*
D15*
X012441Y020091D03*
X012441Y021272D03*
X010618Y021272D03*
X010618Y020091D03*
D16*
X008465Y019245D03*
X008465Y022119D03*
D17*
X015965Y016682D03*
X019965Y016682D03*
X011465Y010682D03*
X007465Y010682D03*
X007465Y002182D03*
X011465Y002182D03*
X015965Y002682D03*
X019965Y002682D03*
D18*
X012358Y025442D03*
X011571Y025442D03*
X008358Y025442D03*
X007571Y025442D03*
D19*
X006567Y027599D03*
X009362Y027599D03*
X010567Y027599D03*
X013362Y027599D03*
D20*
X024299Y009091D03*
X028039Y009091D03*
X028039Y005091D03*
X024299Y005091D03*
D21*
X028465Y013682D03*
X028465Y016182D03*
X028465Y021182D03*
X028465Y023682D03*
D22*
X024465Y023682D03*
X024465Y027737D03*
X024465Y016182D03*
X024465Y012127D03*
D23*
X011049Y012682D03*
X011049Y014682D03*
X011049Y015682D03*
X011049Y016682D03*
X011049Y017682D03*
X007880Y017682D03*
X007880Y016682D03*
X007890Y015682D03*
X007880Y014682D03*
X007880Y012682D03*
X007880Y009182D03*
X007880Y008182D03*
X007890Y007182D03*
X007880Y006182D03*
X007880Y004182D03*
X011049Y004182D03*
X011049Y006182D03*
X011049Y007182D03*
X011049Y008182D03*
X011049Y009182D03*
D24*
X011551Y023682D03*
X012378Y023682D03*
X008378Y023682D03*
X007551Y023682D03*
D25*
X008965Y023847D03*
X008965Y024517D03*
X012965Y024517D03*
X012965Y023847D03*
D26*
X012965Y025182D03*
X008965Y025182D03*
X012465Y019182D03*
X013965Y016682D03*
X012465Y015182D03*
X010465Y013682D03*
X008965Y015682D03*
X011465Y005682D03*
M02*
