G75*
G70*
%OFA0B0*%
%FSLAX24Y24*%
%IPPOS*%
%LPD*%
%AMOC8*
5,1,8,0,0,1.08239X$1,22.5*
%
%ADD10C,0.0080*%
%ADD11C,0.0160*%
%ADD12C,0.0050*%
%ADD13C,0.0060*%
%ADD14C,0.0070*%
%ADD15C,0.0040*%
%ADD16R,0.0200X0.1000*%
%ADD17R,0.0750X0.0300*%
%ADD18R,0.1000X0.0200*%
%ADD19R,0.0300X0.0750*%
%ADD20C,0.0295*%
%ADD21C,0.0039*%
D10*
X002897Y001805D02*
X002897Y002726D01*
X003204Y002419D01*
X003511Y002726D01*
X003511Y001805D01*
X003817Y001958D02*
X003971Y001805D01*
X004278Y001805D01*
X004431Y001958D01*
X004738Y002265D02*
X005352Y002265D01*
X005045Y002572D02*
X005045Y001958D01*
X004431Y002572D02*
X004278Y002726D01*
X003971Y002726D01*
X003817Y002572D01*
X003817Y001958D01*
X008015Y001805D02*
X008015Y002726D01*
X008322Y002419D01*
X008629Y002726D01*
X008629Y001805D01*
X008936Y001958D02*
X009089Y001805D01*
X009396Y001805D01*
X009549Y001958D01*
X009856Y002265D02*
X010470Y002265D01*
X009549Y002572D02*
X009396Y002726D01*
X009089Y002726D01*
X008936Y002572D01*
X008936Y001958D01*
X013263Y003396D02*
X013263Y003896D01*
X013663Y004296D01*
X016263Y004296D02*
X016663Y003896D01*
X016663Y003396D01*
X017003Y003396D02*
X017003Y003896D01*
X017403Y004296D01*
X020003Y004296D02*
X020403Y003896D01*
X020403Y003396D01*
X021007Y002726D02*
X021467Y002726D01*
X021621Y002572D01*
X021621Y002419D01*
X021467Y002265D01*
X021007Y002265D01*
X021007Y001805D02*
X021467Y001805D01*
X021621Y001958D01*
X021621Y002112D01*
X021467Y002265D01*
X021928Y002265D02*
X022541Y002265D01*
X022541Y002419D02*
X022541Y001805D01*
X021928Y001805D02*
X021928Y002419D01*
X022235Y002726D01*
X022541Y002419D01*
X022848Y002726D02*
X023462Y002726D01*
X023155Y002726D02*
X023155Y001805D01*
X024076Y001805D02*
X024076Y002726D01*
X023769Y002726D02*
X024383Y002726D01*
X025611Y002265D02*
X026224Y002265D01*
X025918Y002572D02*
X025918Y001958D01*
X021007Y001805D02*
X021007Y002726D01*
X019703Y001096D02*
X017703Y001096D01*
X015963Y001096D02*
X013963Y001096D01*
D11*
X000495Y002159D02*
X000497Y002215D01*
X000503Y002270D01*
X000513Y002324D01*
X000526Y002378D01*
X000544Y002431D01*
X000565Y002482D01*
X000589Y002532D01*
X000617Y002580D01*
X000649Y002626D01*
X000683Y002670D01*
X000721Y002711D01*
X000761Y002749D01*
X000804Y002784D01*
X000849Y002816D01*
X000897Y002845D01*
X000946Y002871D01*
X000997Y002893D01*
X001049Y002911D01*
X001103Y002925D01*
X001158Y002936D01*
X001213Y002943D01*
X001268Y002946D01*
X001324Y002945D01*
X001379Y002940D01*
X001434Y002931D01*
X001488Y002919D01*
X001541Y002902D01*
X001593Y002882D01*
X001643Y002858D01*
X001691Y002831D01*
X001738Y002801D01*
X001782Y002767D01*
X001824Y002730D01*
X001862Y002690D01*
X001899Y002648D01*
X001932Y002603D01*
X001961Y002557D01*
X001988Y002508D01*
X002010Y002457D01*
X002030Y002405D01*
X002045Y002351D01*
X002057Y002297D01*
X002065Y002242D01*
X002069Y002187D01*
X002069Y002131D01*
X002065Y002076D01*
X002057Y002021D01*
X002045Y001967D01*
X002030Y001913D01*
X002010Y001861D01*
X001988Y001810D01*
X001961Y001761D01*
X001932Y001715D01*
X001899Y001670D01*
X001862Y001628D01*
X001824Y001588D01*
X001782Y001551D01*
X001738Y001517D01*
X001691Y001487D01*
X001643Y001460D01*
X001593Y001436D01*
X001541Y001416D01*
X001488Y001399D01*
X001434Y001387D01*
X001379Y001378D01*
X001324Y001373D01*
X001268Y001372D01*
X001213Y001375D01*
X001158Y001382D01*
X001103Y001393D01*
X001049Y001407D01*
X000997Y001425D01*
X000946Y001447D01*
X000897Y001473D01*
X000849Y001502D01*
X000804Y001534D01*
X000761Y001569D01*
X000721Y001607D01*
X000683Y001648D01*
X000649Y001692D01*
X000617Y001738D01*
X000589Y001786D01*
X000565Y001836D01*
X000544Y001887D01*
X000526Y001940D01*
X000513Y001994D01*
X000503Y002048D01*
X000497Y002103D01*
X000495Y002159D01*
X000495Y031686D02*
X000497Y031742D01*
X000503Y031797D01*
X000513Y031851D01*
X000526Y031905D01*
X000544Y031958D01*
X000565Y032009D01*
X000589Y032059D01*
X000617Y032107D01*
X000649Y032153D01*
X000683Y032197D01*
X000721Y032238D01*
X000761Y032276D01*
X000804Y032311D01*
X000849Y032343D01*
X000897Y032372D01*
X000946Y032398D01*
X000997Y032420D01*
X001049Y032438D01*
X001103Y032452D01*
X001158Y032463D01*
X001213Y032470D01*
X001268Y032473D01*
X001324Y032472D01*
X001379Y032467D01*
X001434Y032458D01*
X001488Y032446D01*
X001541Y032429D01*
X001593Y032409D01*
X001643Y032385D01*
X001691Y032358D01*
X001738Y032328D01*
X001782Y032294D01*
X001824Y032257D01*
X001862Y032217D01*
X001899Y032175D01*
X001932Y032130D01*
X001961Y032084D01*
X001988Y032035D01*
X002010Y031984D01*
X002030Y031932D01*
X002045Y031878D01*
X002057Y031824D01*
X002065Y031769D01*
X002069Y031714D01*
X002069Y031658D01*
X002065Y031603D01*
X002057Y031548D01*
X002045Y031494D01*
X002030Y031440D01*
X002010Y031388D01*
X001988Y031337D01*
X001961Y031288D01*
X001932Y031242D01*
X001899Y031197D01*
X001862Y031155D01*
X001824Y031115D01*
X001782Y031078D01*
X001738Y031044D01*
X001691Y031014D01*
X001643Y030987D01*
X001593Y030963D01*
X001541Y030943D01*
X001488Y030926D01*
X001434Y030914D01*
X001379Y030905D01*
X001324Y030900D01*
X001268Y030899D01*
X001213Y030902D01*
X001158Y030909D01*
X001103Y030920D01*
X001049Y030934D01*
X000997Y030952D01*
X000946Y030974D01*
X000897Y031000D01*
X000849Y031029D01*
X000804Y031061D01*
X000761Y031096D01*
X000721Y031134D01*
X000683Y031175D01*
X000649Y031219D01*
X000617Y031265D01*
X000589Y031313D01*
X000565Y031363D01*
X000544Y031414D01*
X000526Y031467D01*
X000513Y031521D01*
X000503Y031575D01*
X000497Y031630D01*
X000495Y031686D01*
X028841Y031686D02*
X028843Y031742D01*
X028849Y031797D01*
X028859Y031851D01*
X028872Y031905D01*
X028890Y031958D01*
X028911Y032009D01*
X028935Y032059D01*
X028963Y032107D01*
X028995Y032153D01*
X029029Y032197D01*
X029067Y032238D01*
X029107Y032276D01*
X029150Y032311D01*
X029195Y032343D01*
X029243Y032372D01*
X029292Y032398D01*
X029343Y032420D01*
X029395Y032438D01*
X029449Y032452D01*
X029504Y032463D01*
X029559Y032470D01*
X029614Y032473D01*
X029670Y032472D01*
X029725Y032467D01*
X029780Y032458D01*
X029834Y032446D01*
X029887Y032429D01*
X029939Y032409D01*
X029989Y032385D01*
X030037Y032358D01*
X030084Y032328D01*
X030128Y032294D01*
X030170Y032257D01*
X030208Y032217D01*
X030245Y032175D01*
X030278Y032130D01*
X030307Y032084D01*
X030334Y032035D01*
X030356Y031984D01*
X030376Y031932D01*
X030391Y031878D01*
X030403Y031824D01*
X030411Y031769D01*
X030415Y031714D01*
X030415Y031658D01*
X030411Y031603D01*
X030403Y031548D01*
X030391Y031494D01*
X030376Y031440D01*
X030356Y031388D01*
X030334Y031337D01*
X030307Y031288D01*
X030278Y031242D01*
X030245Y031197D01*
X030208Y031155D01*
X030170Y031115D01*
X030128Y031078D01*
X030084Y031044D01*
X030037Y031014D01*
X029989Y030987D01*
X029939Y030963D01*
X029887Y030943D01*
X029834Y030926D01*
X029780Y030914D01*
X029725Y030905D01*
X029670Y030900D01*
X029614Y030899D01*
X029559Y030902D01*
X029504Y030909D01*
X029449Y030920D01*
X029395Y030934D01*
X029343Y030952D01*
X029292Y030974D01*
X029243Y031000D01*
X029195Y031029D01*
X029150Y031061D01*
X029107Y031096D01*
X029067Y031134D01*
X029029Y031175D01*
X028995Y031219D01*
X028963Y031265D01*
X028935Y031313D01*
X028911Y031363D01*
X028890Y031414D01*
X028872Y031467D01*
X028859Y031521D01*
X028849Y031575D01*
X028843Y031630D01*
X028841Y031686D01*
X028841Y002159D02*
X028843Y002215D01*
X028849Y002270D01*
X028859Y002324D01*
X028872Y002378D01*
X028890Y002431D01*
X028911Y002482D01*
X028935Y002532D01*
X028963Y002580D01*
X028995Y002626D01*
X029029Y002670D01*
X029067Y002711D01*
X029107Y002749D01*
X029150Y002784D01*
X029195Y002816D01*
X029243Y002845D01*
X029292Y002871D01*
X029343Y002893D01*
X029395Y002911D01*
X029449Y002925D01*
X029504Y002936D01*
X029559Y002943D01*
X029614Y002946D01*
X029670Y002945D01*
X029725Y002940D01*
X029780Y002931D01*
X029834Y002919D01*
X029887Y002902D01*
X029939Y002882D01*
X029989Y002858D01*
X030037Y002831D01*
X030084Y002801D01*
X030128Y002767D01*
X030170Y002730D01*
X030208Y002690D01*
X030245Y002648D01*
X030278Y002603D01*
X030307Y002557D01*
X030334Y002508D01*
X030356Y002457D01*
X030376Y002405D01*
X030391Y002351D01*
X030403Y002297D01*
X030411Y002242D01*
X030415Y002187D01*
X030415Y002131D01*
X030411Y002076D01*
X030403Y002021D01*
X030391Y001967D01*
X030376Y001913D01*
X030356Y001861D01*
X030334Y001810D01*
X030307Y001761D01*
X030278Y001715D01*
X030245Y001670D01*
X030208Y001628D01*
X030170Y001588D01*
X030128Y001551D01*
X030084Y001517D01*
X030037Y001487D01*
X029989Y001460D01*
X029939Y001436D01*
X029887Y001416D01*
X029834Y001399D01*
X029780Y001387D01*
X029725Y001378D01*
X029670Y001373D01*
X029614Y001372D01*
X029559Y001375D01*
X029504Y001382D01*
X029449Y001393D01*
X029395Y001407D01*
X029343Y001425D01*
X029292Y001447D01*
X029243Y001473D01*
X029195Y001502D01*
X029150Y001534D01*
X029107Y001569D01*
X029067Y001607D01*
X029029Y001648D01*
X028995Y001692D01*
X028963Y001738D01*
X028935Y001786D01*
X028911Y001836D01*
X028890Y001887D01*
X028872Y001940D01*
X028859Y001994D01*
X028849Y002048D01*
X028843Y002103D01*
X028841Y002159D01*
D12*
X028828Y026333D02*
X026728Y026333D01*
X025908Y027183D01*
X025908Y028063D01*
X026478Y028313D01*
X027038Y028053D01*
X027038Y027683D01*
X027278Y027453D01*
X028278Y027453D01*
X028518Y027683D01*
X028518Y029943D01*
X028278Y030183D01*
X027278Y030183D01*
X027038Y029953D01*
X027038Y029363D01*
X026478Y029643D01*
X025918Y029363D01*
X025918Y030473D01*
X026758Y031303D01*
X028838Y031303D01*
X029638Y030453D01*
X029648Y027153D01*
X028828Y026333D01*
X028862Y026366D02*
X026696Y026366D01*
X026650Y026414D02*
X028910Y026414D01*
X028959Y026463D02*
X026603Y026463D01*
X026556Y026511D02*
X029007Y026511D01*
X029056Y026560D02*
X026509Y026560D01*
X026462Y026609D02*
X029104Y026609D01*
X029153Y026657D02*
X026415Y026657D01*
X026369Y026706D02*
X029201Y026706D01*
X029250Y026754D02*
X026322Y026754D01*
X026275Y026803D02*
X029298Y026803D01*
X029347Y026851D02*
X026228Y026851D01*
X026181Y026900D02*
X029396Y026900D01*
X029444Y026948D02*
X026134Y026948D01*
X026088Y026997D02*
X029493Y026997D01*
X029541Y027045D02*
X026041Y027045D01*
X025994Y027094D02*
X029590Y027094D01*
X029638Y027142D02*
X025947Y027142D01*
X025908Y027191D02*
X029648Y027191D01*
X029648Y027240D02*
X025908Y027240D01*
X025908Y027288D02*
X029648Y027288D01*
X029648Y027337D02*
X025908Y027337D01*
X025908Y027385D02*
X029648Y027385D01*
X029647Y027434D02*
X025908Y027434D01*
X025908Y027482D02*
X027247Y027482D01*
X027197Y027531D02*
X025908Y027531D01*
X025908Y027579D02*
X027146Y027579D01*
X027095Y027628D02*
X025908Y027628D01*
X025908Y027676D02*
X027045Y027676D01*
X027038Y027725D02*
X025908Y027725D01*
X025908Y027774D02*
X027038Y027774D01*
X027038Y027822D02*
X025908Y027822D01*
X025908Y027871D02*
X027038Y027871D01*
X027038Y027919D02*
X025908Y027919D01*
X025908Y027968D02*
X027038Y027968D01*
X027038Y028016D02*
X025908Y028016D01*
X025913Y028065D02*
X027012Y028065D01*
X026907Y028113D02*
X026024Y028113D01*
X026135Y028162D02*
X026803Y028162D01*
X026698Y028210D02*
X026245Y028210D01*
X026356Y028259D02*
X026594Y028259D01*
X026489Y028308D02*
X026467Y028308D01*
X025944Y029375D02*
X025918Y029375D01*
X025918Y029424D02*
X026041Y029424D01*
X026138Y029473D02*
X025918Y029473D01*
X025918Y029521D02*
X026235Y029521D01*
X026332Y029570D02*
X025918Y029570D01*
X025918Y029618D02*
X026430Y029618D01*
X026527Y029618D02*
X027038Y029618D01*
X027038Y029570D02*
X026624Y029570D01*
X026721Y029521D02*
X027038Y029521D01*
X027038Y029473D02*
X026818Y029473D01*
X026916Y029424D02*
X027038Y029424D01*
X027038Y029375D02*
X027013Y029375D01*
X027038Y029667D02*
X025918Y029667D01*
X025918Y029715D02*
X027038Y029715D01*
X027038Y029764D02*
X025918Y029764D01*
X025918Y029812D02*
X027038Y029812D01*
X027038Y029861D02*
X025918Y029861D01*
X025918Y029909D02*
X027038Y029909D01*
X027044Y029958D02*
X025918Y029958D01*
X025918Y030007D02*
X027095Y030007D01*
X027145Y030055D02*
X025918Y030055D01*
X025918Y030104D02*
X027196Y030104D01*
X027247Y030152D02*
X025918Y030152D01*
X025918Y030201D02*
X029639Y030201D01*
X029639Y030249D02*
X025918Y030249D01*
X025918Y030298D02*
X029639Y030298D01*
X029639Y030346D02*
X025918Y030346D01*
X025918Y030395D02*
X029639Y030395D01*
X029638Y030443D02*
X025918Y030443D01*
X025938Y030492D02*
X029601Y030492D01*
X029556Y030541D02*
X025987Y030541D01*
X026036Y030589D02*
X029510Y030589D01*
X029464Y030638D02*
X026085Y030638D01*
X026134Y030686D02*
X029419Y030686D01*
X029373Y030735D02*
X026184Y030735D01*
X026233Y030783D02*
X029327Y030783D01*
X029281Y030832D02*
X026282Y030832D01*
X026331Y030880D02*
X029236Y030880D01*
X029190Y030929D02*
X026380Y030929D01*
X026429Y030977D02*
X029144Y030977D01*
X029099Y031026D02*
X026478Y031026D01*
X026527Y031074D02*
X029053Y031074D01*
X029007Y031123D02*
X026577Y031123D01*
X026626Y031172D02*
X028962Y031172D01*
X028916Y031220D02*
X026675Y031220D01*
X026724Y031269D02*
X028870Y031269D01*
X029013Y031838D02*
X028708Y031838D01*
X028606Y031940D01*
X028606Y032143D01*
X028708Y032245D01*
X029013Y032245D01*
X029013Y032449D02*
X029013Y031838D01*
X028809Y032245D02*
X028606Y032449D01*
X028405Y032449D02*
X028202Y032245D01*
X027998Y032449D01*
X027998Y031838D01*
X027797Y031940D02*
X027696Y031838D01*
X027492Y031838D01*
X027390Y031940D01*
X027390Y032042D01*
X027492Y032143D01*
X027390Y032245D01*
X027390Y032347D01*
X027492Y032449D01*
X027696Y032449D01*
X027797Y032347D01*
X027594Y032143D02*
X027492Y032143D01*
X026582Y031940D02*
X026582Y032347D01*
X026480Y032449D01*
X026277Y032449D01*
X026175Y032347D01*
X025974Y032347D02*
X025974Y032143D01*
X025872Y032042D01*
X025669Y032042D01*
X025567Y032143D01*
X025567Y032347D01*
X025669Y032449D01*
X025872Y032449D01*
X025974Y032347D01*
X026175Y031940D02*
X026277Y031838D01*
X026480Y031838D01*
X026582Y031940D01*
X025366Y032042D02*
X025061Y032042D01*
X024959Y032143D01*
X024959Y032449D01*
X024657Y032347D02*
X024555Y032449D01*
X024657Y032347D02*
X024657Y031940D01*
X024759Y032042D02*
X024555Y032042D01*
X024252Y032042D02*
X024048Y032042D01*
X023947Y032143D01*
X023947Y032449D01*
X024252Y032449D01*
X024354Y032347D01*
X024252Y032245D01*
X023947Y032245D01*
X023746Y032143D02*
X023746Y032347D01*
X023644Y032449D01*
X023339Y032449D01*
X023036Y032347D02*
X022935Y032449D01*
X023036Y032347D02*
X023036Y031940D01*
X022935Y032042D02*
X023138Y032042D01*
X023339Y032042D02*
X023644Y032042D01*
X023746Y032143D01*
X022733Y032143D02*
X022733Y032347D01*
X022631Y032449D01*
X022428Y032449D01*
X022326Y032347D01*
X022326Y032143D01*
X022428Y032042D01*
X022631Y032042D01*
X022733Y032143D01*
X022125Y032042D02*
X022125Y032449D01*
X022125Y032245D02*
X021922Y032042D01*
X021820Y032042D01*
X021011Y031838D02*
X021011Y032449D01*
X020604Y032449D01*
X020404Y032347D02*
X020404Y032143D01*
X020302Y032042D01*
X020098Y032042D01*
X019997Y032143D01*
X019997Y032347D01*
X020098Y032449D01*
X020302Y032449D01*
X020404Y032347D01*
X019796Y032347D02*
X019796Y032143D01*
X019694Y032042D01*
X019389Y032042D01*
X019389Y032550D01*
X019491Y032652D01*
X019592Y032652D01*
X019694Y032449D02*
X019389Y032449D01*
X019188Y032449D02*
X018985Y032449D01*
X019086Y032449D02*
X019086Y032042D01*
X019188Y032042D01*
X019086Y031838D02*
X019086Y031736D01*
X018681Y032042D02*
X018783Y032143D01*
X018783Y032347D01*
X018681Y032449D01*
X018376Y032449D01*
X018376Y032042D02*
X018681Y032042D01*
X019694Y032449D02*
X019796Y032347D01*
X017568Y032042D02*
X017364Y032449D01*
X017161Y032042D01*
X016960Y031940D02*
X016858Y031838D01*
X016655Y031838D01*
X016553Y031940D01*
X016553Y032042D01*
X016655Y032143D01*
X016553Y032245D01*
X016553Y032347D01*
X016655Y032449D01*
X016858Y032449D01*
X016960Y032347D01*
X016756Y032143D02*
X016655Y032143D01*
X016352Y032347D02*
X016250Y032347D01*
X016250Y032449D01*
X016352Y032449D01*
X016352Y032347D01*
X016048Y032347D02*
X015641Y031940D01*
X015641Y032347D01*
X015743Y032449D01*
X015947Y032449D01*
X016048Y032347D01*
X016048Y031940D01*
X015947Y031838D01*
X015743Y031838D01*
X015641Y031940D01*
X015441Y032347D02*
X015339Y032347D01*
X015339Y032449D01*
X015441Y032449D01*
X015441Y032347D01*
X015137Y032449D02*
X014730Y032449D01*
X014933Y032449D02*
X014933Y031838D01*
X015137Y032042D01*
X025366Y032042D02*
X025366Y032449D01*
X028309Y030152D02*
X029639Y030152D01*
X029639Y030104D02*
X028357Y030104D01*
X028406Y030055D02*
X029640Y030055D01*
X029640Y030007D02*
X028454Y030007D01*
X028503Y029958D02*
X029640Y029958D01*
X029640Y029909D02*
X028518Y029909D01*
X028518Y029861D02*
X029640Y029861D01*
X029640Y029812D02*
X028518Y029812D01*
X028518Y029764D02*
X029640Y029764D01*
X029641Y029715D02*
X028518Y029715D01*
X028518Y029667D02*
X029641Y029667D01*
X029641Y029618D02*
X028518Y029618D01*
X028518Y029570D02*
X029641Y029570D01*
X029641Y029521D02*
X028518Y029521D01*
X028518Y029473D02*
X029641Y029473D01*
X029641Y029424D02*
X028518Y029424D01*
X028518Y029375D02*
X029642Y029375D01*
X029642Y029327D02*
X028518Y029327D01*
X028518Y029278D02*
X029642Y029278D01*
X029642Y029230D02*
X028518Y029230D01*
X028518Y029181D02*
X029642Y029181D01*
X029642Y029133D02*
X028518Y029133D01*
X028518Y029084D02*
X029642Y029084D01*
X029643Y029036D02*
X028518Y029036D01*
X028518Y028987D02*
X029643Y028987D01*
X029643Y028939D02*
X028518Y028939D01*
X028518Y028890D02*
X029643Y028890D01*
X029643Y028841D02*
X028518Y028841D01*
X028518Y028793D02*
X029643Y028793D01*
X029644Y028744D02*
X028518Y028744D01*
X028518Y028696D02*
X029644Y028696D01*
X029644Y028647D02*
X028518Y028647D01*
X028518Y028599D02*
X029644Y028599D01*
X029644Y028550D02*
X028518Y028550D01*
X028518Y028502D02*
X029644Y028502D01*
X029644Y028453D02*
X028518Y028453D01*
X028518Y028405D02*
X029645Y028405D01*
X029645Y028356D02*
X028518Y028356D01*
X028518Y028308D02*
X029645Y028308D01*
X029645Y028259D02*
X028518Y028259D01*
X028518Y028210D02*
X029645Y028210D01*
X029645Y028162D02*
X028518Y028162D01*
X028518Y028113D02*
X029645Y028113D01*
X029646Y028065D02*
X028518Y028065D01*
X028518Y028016D02*
X029646Y028016D01*
X029646Y027968D02*
X028518Y027968D01*
X028518Y027919D02*
X029646Y027919D01*
X029646Y027871D02*
X028518Y027871D01*
X028518Y027822D02*
X029646Y027822D01*
X029646Y027774D02*
X028518Y027774D01*
X028518Y027725D02*
X029647Y027725D01*
X029647Y027676D02*
X028512Y027676D01*
X028461Y027628D02*
X029647Y027628D01*
X029647Y027579D02*
X028411Y027579D01*
X028360Y027531D02*
X029647Y027531D01*
X029647Y027482D02*
X028309Y027482D01*
X028405Y031838D02*
X028405Y032449D01*
D13*
X025268Y030929D02*
X025268Y030695D01*
X025151Y030578D01*
X025151Y030346D02*
X025268Y030229D01*
X025268Y029995D01*
X025151Y029879D01*
X025151Y029646D02*
X025268Y029529D01*
X025268Y029296D01*
X025151Y029179D01*
X024917Y028946D02*
X024917Y028479D01*
X025268Y028246D02*
X024567Y027779D01*
X024567Y028246D02*
X025268Y027779D01*
X024684Y029179D02*
X024567Y029296D01*
X024567Y029529D01*
X024684Y029646D01*
X024801Y029646D01*
X024917Y029529D01*
X025034Y029646D01*
X025151Y029646D01*
X024917Y029529D02*
X024917Y029412D01*
X024684Y029879D02*
X024567Y029995D01*
X024567Y030229D01*
X024684Y030346D01*
X024801Y030346D01*
X024917Y030229D01*
X025034Y030346D01*
X025151Y030346D01*
X024917Y030229D02*
X024917Y030112D01*
X024684Y030578D02*
X024567Y030695D01*
X024567Y030929D01*
X024684Y031045D01*
X024801Y031045D01*
X024917Y030929D01*
X025034Y031045D01*
X025151Y031045D01*
X025268Y030929D01*
X024917Y030929D02*
X024917Y030812D01*
X023688Y025584D02*
X022088Y025584D01*
X022088Y024584D01*
X023688Y024584D01*
X023688Y025584D01*
X023138Y025084D02*
X022888Y025084D01*
X022888Y025334D01*
X022888Y025084D02*
X022888Y024834D01*
X022888Y025084D02*
X022488Y024834D01*
X022488Y025334D01*
X022888Y025084D01*
X022288Y025084D01*
X018188Y024584D02*
X018188Y025584D01*
X016588Y025584D01*
X016588Y024584D01*
X018188Y024584D01*
X017788Y024834D02*
X017388Y025084D01*
X017388Y024834D01*
X017388Y025084D02*
X017388Y025334D01*
X017388Y025084D02*
X017788Y025334D01*
X017788Y024834D01*
X017988Y025084D02*
X017388Y025084D01*
X017138Y025084D01*
X014688Y028978D02*
X014688Y029978D01*
X013088Y029978D01*
X013088Y028978D01*
X014688Y028978D01*
X014138Y029478D02*
X013888Y029478D01*
X013888Y029728D01*
X013888Y029478D02*
X013888Y029228D01*
X013888Y029478D02*
X013488Y029228D01*
X013488Y029728D01*
X013888Y029478D01*
X013288Y029478D01*
X013088Y030584D02*
X014688Y030584D01*
X014688Y031584D01*
X013088Y031584D01*
X013088Y030584D01*
X013488Y030834D02*
X013888Y031084D01*
X013888Y031334D01*
X013888Y031084D02*
X013888Y030834D01*
X013888Y031084D02*
X013288Y031084D01*
X013488Y030834D02*
X013488Y031334D01*
X013888Y031084D01*
X014138Y031084D01*
X012188Y025584D02*
X010588Y025584D01*
X010588Y024584D01*
X012188Y024584D01*
X012188Y025584D01*
X011638Y025084D02*
X011388Y025084D01*
X011388Y025334D01*
X011388Y025084D02*
X011388Y024834D01*
X011388Y025084D02*
X010988Y024834D01*
X010988Y025334D01*
X011388Y025084D01*
X010788Y025084D01*
X005294Y024584D02*
X005294Y025584D01*
X003694Y025584D01*
X003694Y024584D01*
X005294Y024584D01*
X004744Y025084D02*
X004494Y025084D01*
X004494Y025334D01*
X004494Y025084D02*
X004494Y024834D01*
X004494Y025084D02*
X004094Y024834D01*
X004094Y025334D01*
X004494Y025084D01*
X003894Y025084D01*
X004069Y028284D02*
X003069Y028284D01*
X003069Y029884D01*
X004069Y029884D01*
X004069Y028284D01*
X003569Y028834D02*
X003569Y029084D01*
X003819Y029084D01*
X003569Y029084D02*
X003819Y029484D01*
X003319Y029484D01*
X003569Y029084D01*
X003319Y029084D01*
X003569Y029084D02*
X003569Y029684D01*
X013123Y006039D02*
X013590Y005338D01*
X013823Y005689D02*
X014290Y005689D01*
X014522Y005689D02*
X014522Y006039D01*
X014989Y006039D01*
X014873Y005805D02*
X014989Y005689D01*
X014989Y005455D01*
X014873Y005338D01*
X014639Y005338D01*
X014522Y005455D01*
X014522Y005689D02*
X014756Y005805D01*
X014873Y005805D01*
X015222Y005805D02*
X015456Y006039D01*
X015456Y005338D01*
X015689Y005338D02*
X015222Y005338D01*
X015922Y005338D02*
X016389Y005805D01*
X016389Y005922D01*
X016272Y006039D01*
X016039Y006039D01*
X015922Y005922D01*
X015922Y005338D02*
X016389Y005338D01*
X017060Y005338D02*
X017527Y006039D01*
X017760Y005689D02*
X018227Y005689D01*
X018459Y005689D02*
X018459Y006039D01*
X018926Y006039D01*
X018810Y005805D02*
X018926Y005689D01*
X018926Y005455D01*
X018810Y005338D01*
X018576Y005338D01*
X018459Y005455D01*
X018459Y005689D02*
X018693Y005805D01*
X018810Y005805D01*
X019159Y005805D02*
X019393Y006039D01*
X019393Y005338D01*
X019626Y005338D02*
X019159Y005338D01*
X019859Y005455D02*
X019976Y005338D01*
X020209Y005338D01*
X020326Y005455D01*
X020326Y005572D01*
X020209Y005689D01*
X020092Y005689D01*
X020209Y005689D02*
X020326Y005805D01*
X020326Y005922D01*
X020209Y006039D01*
X019976Y006039D01*
X019859Y005922D01*
X017527Y005338D02*
X017060Y006039D01*
X013590Y006039D02*
X013123Y005338D01*
D14*
X001846Y008866D02*
X001319Y008866D01*
X001055Y008866D02*
X000923Y008866D01*
X001187Y009131D02*
X001187Y009658D01*
X001055Y009658D02*
X001319Y009658D01*
X001450Y009526D01*
X001450Y009263D01*
X001319Y009131D01*
X001187Y009131D01*
X000923Y009263D02*
X000923Y009526D01*
X001055Y009658D01*
X000923Y009923D02*
X000923Y010318D01*
X001055Y010450D01*
X001319Y010450D01*
X001450Y010318D01*
X001450Y009923D01*
X000791Y009923D01*
X000660Y010055D01*
X000660Y010186D01*
X000923Y010715D02*
X000923Y011110D01*
X001055Y011242D01*
X001187Y011110D01*
X001187Y010715D01*
X001319Y010715D02*
X000923Y010715D01*
X001319Y010715D02*
X001450Y010847D01*
X001450Y011110D01*
X001450Y011506D02*
X001450Y011770D01*
X001582Y011638D02*
X001055Y011638D01*
X000923Y011506D01*
X000923Y012034D02*
X000923Y012298D01*
X000923Y012166D02*
X001714Y012166D01*
X001714Y012298D01*
X001319Y012562D02*
X001450Y012694D01*
X001450Y012958D01*
X001319Y013090D01*
X001055Y013090D01*
X000923Y012958D01*
X000923Y012694D01*
X001055Y012562D01*
X001319Y012562D01*
X001187Y013354D02*
X000923Y013618D01*
X001187Y013881D01*
X001714Y013881D01*
X001714Y013354D02*
X001187Y013354D01*
X001319Y014938D02*
X000923Y014938D01*
X001319Y014938D02*
X001450Y015070D01*
X001450Y015333D01*
X001319Y015465D01*
X001450Y015730D02*
X001450Y016125D01*
X001319Y016257D01*
X001055Y016257D01*
X000923Y016125D01*
X000923Y015730D01*
X000791Y015730D02*
X001450Y015730D01*
X001714Y015465D02*
X000923Y015465D01*
X000791Y015730D02*
X000660Y015862D01*
X000660Y015993D01*
X000923Y016521D02*
X000923Y016785D01*
X000923Y016653D02*
X001450Y016653D01*
X001450Y016785D01*
X001714Y016653D02*
X001846Y016653D01*
X001714Y017050D02*
X000923Y017050D01*
X000923Y017577D02*
X001714Y017577D01*
X001319Y017577D02*
X001319Y017050D01*
X001319Y018633D02*
X001319Y018764D01*
X001450Y018764D01*
X001450Y018633D01*
X001319Y018633D01*
X001055Y018633D02*
X001055Y018764D01*
X000923Y018764D01*
X000923Y018633D01*
X001055Y018633D01*
X001450Y019029D02*
X001450Y019161D01*
X001187Y019424D01*
X001450Y019424D02*
X000923Y019424D01*
X001187Y019689D02*
X001187Y020216D01*
X001055Y020216D02*
X001319Y020216D01*
X001450Y020084D01*
X001450Y019821D01*
X001319Y019689D01*
X001187Y019689D01*
X000923Y019821D02*
X000923Y020084D01*
X001055Y020216D01*
X000923Y020481D02*
X000923Y020876D01*
X001055Y021008D01*
X001319Y021008D01*
X001450Y020876D01*
X001450Y020481D01*
X000791Y020481D01*
X000660Y020613D01*
X000660Y020744D01*
X000923Y021273D02*
X001319Y021273D01*
X001450Y021405D01*
X001450Y021800D01*
X000923Y021800D01*
X000923Y022065D02*
X000923Y022460D01*
X001055Y022592D01*
X001187Y022460D01*
X001187Y022065D01*
X001319Y022065D02*
X000923Y022065D01*
X001319Y022065D02*
X001450Y022196D01*
X001450Y022460D01*
X001582Y022856D02*
X001055Y022856D01*
X000923Y022988D01*
X000923Y023384D01*
X001714Y023384D01*
X001714Y022988D01*
X001582Y022856D01*
D15*
X004501Y031933D02*
X004761Y031933D01*
X004761Y032454D01*
X004501Y032454D01*
X004414Y032367D01*
X004414Y032020D01*
X004501Y031933D01*
X004246Y032194D02*
X004159Y032107D01*
X003985Y032107D01*
X003899Y032194D01*
X003899Y032280D01*
X004246Y032280D01*
X004246Y032194D02*
X004246Y032367D01*
X004159Y032454D01*
X003985Y032454D01*
X003730Y032454D02*
X003730Y032107D01*
X003730Y032280D02*
X003556Y032107D01*
X003470Y032107D01*
X003300Y032107D02*
X003300Y032454D01*
X003300Y032280D02*
X003127Y032107D01*
X003040Y032107D01*
X002871Y032107D02*
X002871Y032367D01*
X002784Y032454D01*
X002524Y032454D01*
X002524Y032540D02*
X002610Y032627D01*
X002697Y032627D01*
X002524Y032540D02*
X002524Y032107D01*
X005445Y032194D02*
X005445Y032280D01*
X005792Y032280D01*
X005792Y032194D02*
X005706Y032107D01*
X005532Y032107D01*
X005445Y032194D01*
X005532Y032454D02*
X005706Y032454D01*
X005792Y032367D01*
X005792Y032194D01*
X005963Y032107D02*
X006136Y032107D01*
X006049Y032020D02*
X006049Y032367D01*
X005963Y032454D01*
X006305Y032454D02*
X006305Y032194D01*
X006392Y032107D01*
X006565Y032107D01*
X006565Y032280D02*
X006305Y032280D01*
X006305Y032454D02*
X006565Y032454D01*
X006652Y032367D01*
X006565Y032280D01*
X006820Y032454D02*
X006820Y031933D01*
X007167Y031933D02*
X006820Y032454D01*
X007167Y032454D02*
X007167Y031933D01*
D16*
X005044Y025084D03*
X011938Y025084D03*
X014438Y029478D03*
X014438Y031084D03*
X016838Y025084D03*
X023438Y025084D03*
D17*
X024063Y025084D03*
X021713Y025084D03*
X018563Y025084D03*
X016213Y025084D03*
X012563Y025084D03*
X010213Y025084D03*
X012713Y029478D03*
X012713Y031084D03*
X015063Y031084D03*
X015063Y029478D03*
X005669Y025084D03*
X003319Y025084D03*
D18*
X003569Y028534D03*
D19*
X003569Y027909D03*
X003569Y030259D03*
D20*
X001109Y028416D02*
X003359Y026894D01*
X003390Y026871D01*
X003418Y026845D01*
X003444Y026817D01*
X003466Y026786D01*
X003486Y026753D01*
X003502Y026718D01*
X003515Y026682D01*
X003525Y026644D01*
X003530Y026606D01*
X003532Y026568D01*
X003530Y026530D01*
X003525Y026492D01*
X003515Y026454D01*
X003502Y026418D01*
X003486Y026383D01*
X003466Y026350D01*
X003444Y026319D01*
X003418Y026291D01*
X003390Y026265D01*
X003359Y026242D01*
X001109Y024720D01*
X001076Y024700D01*
X001041Y024683D01*
X001004Y024670D01*
X000967Y024660D01*
X000928Y024654D01*
X000890Y024652D01*
X000851Y024654D01*
X000813Y024659D01*
X000775Y024669D01*
X000738Y024682D01*
X000703Y024698D01*
X000670Y024718D01*
X000639Y024741D01*
X000610Y024767D01*
X000584Y024795D01*
X000561Y024827D01*
X000541Y024860D01*
X000524Y024895D01*
X000511Y024931D01*
X000502Y024969D01*
X000496Y025007D01*
X000494Y025046D01*
X000494Y028090D01*
X000496Y028129D01*
X000502Y028167D01*
X000511Y028205D01*
X000524Y028241D01*
X000541Y028276D01*
X000561Y028309D01*
X000584Y028341D01*
X000610Y028369D01*
X000639Y028395D01*
X000670Y028418D01*
X000703Y028438D01*
X000738Y028454D01*
X000775Y028467D01*
X000813Y028477D01*
X000851Y028482D01*
X000890Y028484D01*
X000928Y028482D01*
X000967Y028476D01*
X001004Y028466D01*
X001041Y028453D01*
X001076Y028436D01*
X001109Y028416D01*
X012426Y027922D02*
X013948Y025672D01*
X013971Y025641D01*
X013997Y025613D01*
X014025Y025587D01*
X014056Y025565D01*
X014089Y025545D01*
X014124Y025529D01*
X014160Y025516D01*
X014198Y025506D01*
X014236Y025501D01*
X014274Y025499D01*
X014312Y025501D01*
X014350Y025506D01*
X014388Y025516D01*
X014424Y025529D01*
X014459Y025545D01*
X014492Y025565D01*
X014523Y025587D01*
X014551Y025613D01*
X014577Y025641D01*
X014600Y025672D01*
X016122Y027922D01*
X016142Y027955D01*
X016159Y027990D01*
X016172Y028027D01*
X016182Y028064D01*
X016188Y028103D01*
X016190Y028141D01*
X016188Y028180D01*
X016183Y028218D01*
X016173Y028256D01*
X016160Y028293D01*
X016144Y028328D01*
X016124Y028361D01*
X016101Y028392D01*
X016075Y028421D01*
X016047Y028447D01*
X016015Y028470D01*
X015982Y028490D01*
X015947Y028507D01*
X015911Y028520D01*
X015873Y028529D01*
X015835Y028535D01*
X015796Y028537D01*
X012752Y028537D01*
X012713Y028535D01*
X012675Y028529D01*
X012637Y028520D01*
X012601Y028507D01*
X012566Y028490D01*
X012533Y028470D01*
X012501Y028447D01*
X012473Y028421D01*
X012447Y028392D01*
X012424Y028361D01*
X012404Y028328D01*
X012388Y028293D01*
X012375Y028256D01*
X012365Y028218D01*
X012360Y028180D01*
X012358Y028141D01*
X012360Y028103D01*
X012366Y028064D01*
X012376Y028027D01*
X012389Y027990D01*
X012406Y027955D01*
X012426Y027922D01*
X027945Y023351D02*
X030195Y024873D01*
X030228Y024893D01*
X030263Y024910D01*
X030300Y024923D01*
X030337Y024933D01*
X030376Y024939D01*
X030414Y024941D01*
X030453Y024939D01*
X030491Y024934D01*
X030529Y024924D01*
X030566Y024911D01*
X030601Y024895D01*
X030634Y024875D01*
X030665Y024852D01*
X030694Y024826D01*
X030720Y024798D01*
X030743Y024766D01*
X030763Y024733D01*
X030780Y024698D01*
X030793Y024662D01*
X030802Y024624D01*
X030808Y024586D01*
X030810Y024547D01*
X030809Y024547D02*
X030809Y021503D01*
X030810Y021503D02*
X030808Y021464D01*
X030802Y021426D01*
X030793Y021388D01*
X030780Y021352D01*
X030763Y021317D01*
X030743Y021284D01*
X030720Y021252D01*
X030694Y021224D01*
X030665Y021198D01*
X030634Y021175D01*
X030601Y021155D01*
X030566Y021139D01*
X030529Y021126D01*
X030491Y021116D01*
X030453Y021111D01*
X030414Y021109D01*
X030376Y021111D01*
X030337Y021117D01*
X030300Y021127D01*
X030263Y021140D01*
X030228Y021157D01*
X030195Y021177D01*
X027945Y022699D01*
X027914Y022722D01*
X027886Y022748D01*
X027860Y022776D01*
X027838Y022807D01*
X027818Y022840D01*
X027802Y022875D01*
X027789Y022911D01*
X027779Y022949D01*
X027774Y022987D01*
X027772Y023025D01*
X027774Y023063D01*
X027779Y023101D01*
X027789Y023139D01*
X027802Y023175D01*
X027818Y023210D01*
X027838Y023243D01*
X027860Y023274D01*
X027886Y023302D01*
X027914Y023328D01*
X027945Y023351D01*
X016962Y011126D02*
X018484Y008875D01*
X018484Y008876D02*
X018504Y008843D01*
X018521Y008808D01*
X018534Y008771D01*
X018544Y008734D01*
X018550Y008695D01*
X018552Y008657D01*
X018550Y008618D01*
X018545Y008580D01*
X018535Y008542D01*
X018522Y008505D01*
X018506Y008470D01*
X018486Y008437D01*
X018463Y008406D01*
X018437Y008377D01*
X018409Y008351D01*
X018377Y008328D01*
X018344Y008308D01*
X018309Y008291D01*
X018273Y008278D01*
X018235Y008269D01*
X018197Y008263D01*
X018158Y008261D01*
X015114Y008261D01*
X015075Y008263D01*
X015037Y008269D01*
X014999Y008278D01*
X014963Y008291D01*
X014928Y008308D01*
X014895Y008328D01*
X014863Y008351D01*
X014835Y008377D01*
X014809Y008406D01*
X014786Y008437D01*
X014766Y008470D01*
X014750Y008505D01*
X014737Y008542D01*
X014727Y008580D01*
X014722Y008618D01*
X014720Y008657D01*
X014722Y008695D01*
X014728Y008734D01*
X014738Y008771D01*
X014751Y008808D01*
X014768Y008843D01*
X014788Y008876D01*
X014788Y008875D02*
X016310Y011126D01*
X016333Y011157D01*
X016359Y011185D01*
X016387Y011211D01*
X016418Y011233D01*
X016451Y011253D01*
X016486Y011269D01*
X016522Y011282D01*
X016560Y011292D01*
X016598Y011297D01*
X016636Y011299D01*
X016674Y011297D01*
X016712Y011292D01*
X016750Y011282D01*
X016786Y011269D01*
X016821Y011253D01*
X016854Y011233D01*
X016885Y011211D01*
X016913Y011185D01*
X016939Y011157D01*
X016962Y011126D01*
D21*
X016833Y010525D02*
X016341Y010525D01*
X016341Y009245D01*
X016636Y009442D01*
X016636Y008950D01*
X016498Y009049D01*
X016636Y008556D01*
X016912Y009009D01*
X016735Y008950D01*
X016931Y009836D01*
X016538Y009541D01*
X016833Y010525D01*
X016824Y010494D02*
X016341Y010494D01*
X016341Y010456D02*
X016812Y010456D01*
X016801Y010418D02*
X016341Y010418D01*
X016341Y010380D02*
X016790Y010380D01*
X016778Y010342D02*
X016341Y010342D01*
X016341Y010304D02*
X016767Y010304D01*
X016756Y010266D02*
X016341Y010266D01*
X016341Y010229D02*
X016744Y010229D01*
X016733Y010191D02*
X016341Y010191D01*
X016341Y010153D02*
X016721Y010153D01*
X016710Y010115D02*
X016341Y010115D01*
X016341Y010077D02*
X016699Y010077D01*
X016687Y010039D02*
X016341Y010039D01*
X016341Y010001D02*
X016676Y010001D01*
X016665Y009963D02*
X016341Y009963D01*
X016341Y009925D02*
X016653Y009925D01*
X016642Y009887D02*
X016341Y009887D01*
X016341Y009849D02*
X016630Y009849D01*
X016619Y009811D02*
X016341Y009811D01*
X016341Y009774D02*
X016608Y009774D01*
X016596Y009736D02*
X016341Y009736D01*
X016341Y009698D02*
X016585Y009698D01*
X016574Y009660D02*
X016341Y009660D01*
X016341Y009622D02*
X016562Y009622D01*
X016551Y009584D02*
X016341Y009584D01*
X016341Y009546D02*
X016539Y009546D01*
X016545Y009546D02*
X016867Y009546D01*
X016859Y009508D02*
X016341Y009508D01*
X016341Y009470D02*
X016850Y009470D01*
X016842Y009432D02*
X016636Y009432D01*
X016621Y009432D02*
X016341Y009432D01*
X016341Y009394D02*
X016565Y009394D01*
X016508Y009356D02*
X016341Y009356D01*
X016341Y009319D02*
X016451Y009319D01*
X016394Y009281D02*
X016341Y009281D01*
X016636Y009281D02*
X016808Y009281D01*
X016817Y009319D02*
X016636Y009319D01*
X016636Y009356D02*
X016825Y009356D01*
X016833Y009394D02*
X016636Y009394D01*
X016636Y009243D02*
X016800Y009243D01*
X016791Y009205D02*
X016636Y009205D01*
X016636Y009167D02*
X016783Y009167D01*
X016774Y009129D02*
X016636Y009129D01*
X016636Y009091D02*
X016766Y009091D01*
X016758Y009053D02*
X016636Y009053D01*
X016636Y009015D02*
X016749Y009015D01*
X016741Y008977D02*
X016636Y008977D01*
X016598Y008977D02*
X016518Y008977D01*
X016529Y008939D02*
X016869Y008939D01*
X016846Y008902D02*
X016540Y008902D01*
X016550Y008864D02*
X016823Y008864D01*
X016800Y008826D02*
X016561Y008826D01*
X016571Y008788D02*
X016777Y008788D01*
X016754Y008750D02*
X016582Y008750D01*
X016593Y008712D02*
X016731Y008712D01*
X016708Y008674D02*
X016603Y008674D01*
X016614Y008636D02*
X016685Y008636D01*
X016662Y008598D02*
X016625Y008598D01*
X016635Y008560D02*
X016639Y008560D01*
X016816Y008977D02*
X016892Y008977D01*
X016545Y009015D02*
X016508Y009015D01*
X016596Y009584D02*
X016876Y009584D01*
X016884Y009622D02*
X016646Y009622D01*
X016697Y009660D02*
X016892Y009660D01*
X016901Y009698D02*
X016747Y009698D01*
X016798Y009736D02*
X016909Y009736D01*
X016918Y009774D02*
X016848Y009774D01*
X016899Y009811D02*
X016926Y009811D01*
X028546Y022730D02*
X029825Y022730D01*
X029628Y023025D01*
X030120Y023025D01*
X030022Y022887D01*
X030514Y023025D01*
X030061Y023300D01*
X030120Y023123D01*
X029235Y023320D01*
X029530Y022926D01*
X028546Y023222D01*
X028546Y022730D01*
X028546Y022740D02*
X029818Y022740D01*
X029793Y022778D02*
X028546Y022778D01*
X028546Y022816D02*
X029768Y022816D01*
X029742Y022854D02*
X028546Y022854D01*
X028546Y022892D02*
X029717Y022892D01*
X029692Y022929D02*
X029528Y022929D01*
X029520Y022929D02*
X028546Y022929D01*
X028546Y022967D02*
X029393Y022967D01*
X029471Y023005D02*
X029641Y023005D01*
X029667Y022967D02*
X029499Y022967D01*
X029442Y023043D02*
X030484Y023043D01*
X030444Y023005D02*
X030106Y023005D01*
X030079Y022967D02*
X030309Y022967D01*
X030174Y022929D02*
X030052Y022929D01*
X030038Y022892D02*
X030025Y022892D01*
X029969Y023157D02*
X029357Y023157D01*
X029329Y023195D02*
X029798Y023195D01*
X029628Y023233D02*
X029300Y023233D01*
X029272Y023271D02*
X029457Y023271D01*
X029385Y023119D02*
X030359Y023119D01*
X030297Y023157D02*
X030109Y023157D01*
X030097Y023195D02*
X030235Y023195D01*
X030173Y023233D02*
X030084Y023233D01*
X030071Y023271D02*
X030110Y023271D01*
X030422Y023081D02*
X029414Y023081D01*
X029267Y023005D02*
X028546Y023005D01*
X028546Y023043D02*
X029141Y023043D01*
X029014Y023081D02*
X028546Y023081D01*
X028546Y023119D02*
X028888Y023119D01*
X028762Y023157D02*
X028546Y023157D01*
X028546Y023195D02*
X028635Y023195D01*
X029243Y023309D02*
X029287Y023309D01*
X014569Y026273D02*
X014569Y027552D01*
X014274Y027356D01*
X014274Y027848D01*
X014412Y027749D01*
X014274Y028241D01*
X013998Y027789D01*
X014176Y027848D01*
X013979Y026962D01*
X014372Y027257D01*
X014077Y026273D01*
X014569Y026273D01*
X014569Y026304D02*
X014086Y026304D01*
X014098Y026342D02*
X014569Y026342D01*
X014569Y026380D02*
X014109Y026380D01*
X014121Y026418D02*
X014569Y026418D01*
X014569Y026455D02*
X014132Y026455D01*
X014143Y026493D02*
X014569Y026493D01*
X014569Y026531D02*
X014155Y026531D01*
X014166Y026569D02*
X014569Y026569D01*
X014569Y026607D02*
X014177Y026607D01*
X014189Y026645D02*
X014569Y026645D01*
X014569Y026683D02*
X014200Y026683D01*
X014212Y026721D02*
X014569Y026721D01*
X014569Y026759D02*
X014223Y026759D01*
X014234Y026797D02*
X014569Y026797D01*
X014569Y026835D02*
X014246Y026835D01*
X014257Y026872D02*
X014569Y026872D01*
X014569Y026910D02*
X014268Y026910D01*
X014280Y026948D02*
X014569Y026948D01*
X014569Y026986D02*
X014291Y026986D01*
X014303Y027024D02*
X014569Y027024D01*
X014569Y027062D02*
X014314Y027062D01*
X014325Y027100D02*
X014569Y027100D01*
X014569Y027138D02*
X014337Y027138D01*
X014348Y027176D02*
X014569Y027176D01*
X014569Y027214D02*
X014359Y027214D01*
X014365Y027252D02*
X014043Y027252D01*
X014052Y027290D02*
X014569Y027290D01*
X014569Y027327D02*
X014060Y027327D01*
X014068Y027365D02*
X014274Y027365D01*
X014289Y027365D02*
X014569Y027365D01*
X014569Y027403D02*
X014346Y027403D01*
X014402Y027441D02*
X014569Y027441D01*
X014569Y027479D02*
X014459Y027479D01*
X014516Y027517D02*
X014569Y027517D01*
X014569Y027252D02*
X014371Y027252D01*
X014314Y027214D02*
X014035Y027214D01*
X014026Y027176D02*
X014264Y027176D01*
X014213Y027138D02*
X014018Y027138D01*
X014009Y027100D02*
X014163Y027100D01*
X014112Y027062D02*
X014001Y027062D01*
X013993Y027024D02*
X014062Y027024D01*
X014011Y026986D02*
X013984Y026986D01*
X014077Y027403D02*
X014274Y027403D01*
X014274Y027441D02*
X014085Y027441D01*
X014094Y027479D02*
X014274Y027479D01*
X014274Y027517D02*
X014102Y027517D01*
X014111Y027555D02*
X014274Y027555D01*
X014274Y027593D02*
X014119Y027593D01*
X014127Y027631D02*
X014274Y027631D01*
X014274Y027669D02*
X014136Y027669D01*
X014144Y027707D02*
X014274Y027707D01*
X014274Y027744D02*
X014153Y027744D01*
X014161Y027782D02*
X014274Y027782D01*
X014274Y027820D02*
X014169Y027820D01*
X014093Y027820D02*
X014018Y027820D01*
X014041Y027858D02*
X014381Y027858D01*
X014392Y027820D02*
X014312Y027820D01*
X014365Y027782D02*
X014403Y027782D01*
X014371Y027896D02*
X014064Y027896D01*
X014087Y027934D02*
X014360Y027934D01*
X014349Y027972D02*
X014110Y027972D01*
X014133Y028010D02*
X014339Y028010D01*
X014328Y028048D02*
X014156Y028048D01*
X014179Y028086D02*
X014318Y028086D01*
X014307Y028124D02*
X014202Y028124D01*
X014225Y028162D02*
X014296Y028162D01*
X014286Y028199D02*
X014248Y028199D01*
X014272Y028237D02*
X014275Y028237D01*
X002758Y026863D02*
X002758Y026371D01*
X001774Y026667D01*
X002069Y026273D01*
X001183Y026470D01*
X001243Y026293D01*
X000790Y026568D01*
X001282Y026706D01*
X001183Y026568D01*
X001676Y026568D01*
X001479Y026863D01*
X002758Y026863D01*
X002758Y026835D02*
X001498Y026835D01*
X001523Y026797D02*
X002758Y026797D01*
X002758Y026759D02*
X001549Y026759D01*
X001574Y026721D02*
X002758Y026721D01*
X002758Y026683D02*
X001599Y026683D01*
X001624Y026645D02*
X001790Y026645D01*
X001819Y026607D02*
X001650Y026607D01*
X001675Y026569D02*
X001847Y026569D01*
X001876Y026531D02*
X000850Y026531D01*
X000793Y026569D02*
X001184Y026569D01*
X001211Y026607D02*
X000929Y026607D01*
X000913Y026493D02*
X001904Y026493D01*
X001932Y026455D02*
X001248Y026455D01*
X001188Y026455D02*
X000975Y026455D01*
X001037Y026418D02*
X001201Y026418D01*
X001214Y026380D02*
X001100Y026380D01*
X001162Y026342D02*
X001226Y026342D01*
X001224Y026304D02*
X001239Y026304D01*
X001419Y026418D02*
X001961Y026418D01*
X001989Y026380D02*
X001589Y026380D01*
X001760Y026342D02*
X002018Y026342D01*
X002046Y026304D02*
X001930Y026304D01*
X001972Y026607D02*
X002758Y026607D01*
X002758Y026569D02*
X002099Y026569D01*
X002225Y026531D02*
X002758Y026531D01*
X002758Y026493D02*
X002352Y026493D01*
X002478Y026455D02*
X002758Y026455D01*
X002758Y026418D02*
X002604Y026418D01*
X002731Y026380D02*
X002758Y026380D01*
X002758Y026645D02*
X001846Y026645D01*
X001265Y026683D02*
X001199Y026683D01*
X001238Y026645D02*
X001064Y026645D01*
M02*
